<svg width="488" height="50" viewBox="0 0 488 50" fill="none" xmlns="http://www.w3.org/2000/svg">
<g clip-path="url(#clip0_273_188)">
<path d="M124.46 8.41837C128.264 8.41837 131.322 8.87327 134.139 10.4718C137.033 12.1145 138.935 14.5596 139.921 17.6934C141.525 22.7857 141.525 27.9224 139.763 32.9579C138.316 37.0899 135.353 39.8067 131.113 40.9882C126.198 42.3592 121.32 42.2897 116.626 40.0847C112.803 38.2904 110.642 35.1124 109.644 31.1256C108.652 27.1768 108.627 23.1901 109.606 19.216C110.876 14.0794 113.972 10.6487 119.102 9.14495C121.061 8.57632 123.064 8.38678 124.46 8.41837ZM118.401 25.0919C118.338 26.5766 118.477 28.0235 118.856 29.4514C119.842 33.1222 122.116 34.7902 125.882 34.43C127.885 34.2405 129.451 33.3117 130.412 31.4289C131.17 29.9505 131.391 28.3773 131.517 26.7725C131.707 24.4285 131.612 22.0844 130.879 19.8352C129.944 16.9605 127.935 15.6084 124.827 15.6463C121.964 15.6842 119.987 17.1689 119.09 19.9173C118.546 21.6106 118.319 23.3354 118.401 25.0919Z" fill="white"/>
<path d="M28.6779 31.1541C28.6779 33.7887 28.6589 36.4297 28.6905 39.0644C28.6968 39.6583 28.5326 39.9236 27.945 40.1005C23.7245 41.3705 19.4155 41.9391 15.0245 41.8001C11.5748 41.6864 8.30198 40.865 5.52202 38.6663C2.29978 36.1138 0.802392 32.6199 0.265353 28.6774C-0.113733 25.8785 -0.132687 23.0543 0.518078 20.2869C1.90174 14.4174 5.54097 10.6645 11.3726 9.18603C16.6924 7.83396 21.9428 8.35204 27.0984 10.1338C27.8439 10.3928 27.9955 10.6771 27.648 11.4353C26.8835 13.1096 26.1822 14.8155 25.5504 16.5466C25.2661 17.3364 24.906 17.3111 24.2742 17.0205C21.968 15.959 19.5103 15.6179 16.9957 15.6684C13.2807 15.7379 10.6965 17.7723 9.71724 21.3737C8.99698 24.0336 9.01593 26.7125 9.74251 29.3661C10.6965 32.8347 13.1417 34.6354 16.8062 34.5975C17.7981 34.5848 18.79 34.5027 19.7757 34.3384C20.2116 34.2626 20.3633 34.0731 20.3569 33.6434C20.338 32.3545 20.3317 31.0656 20.3569 29.7767C20.3696 29.2397 20.1105 29.1513 19.6556 29.1576C18.1898 29.1702 16.724 29.1386 15.2582 29.1765C14.6643 29.1892 14.4305 29.0438 14.4432 28.3994C14.4811 26.643 14.4811 24.8802 14.4432 23.1238C14.4305 22.5362 14.6264 22.3719 15.195 22.3719C19.4155 22.3909 23.636 22.3972 27.8565 22.3656C28.5515 22.3593 28.6842 22.6183 28.6779 23.2438C28.6652 25.8785 28.6779 28.5131 28.6779 31.1541Z" fill="white"/>
<path d="M177.103 25.136C177.103 20.0689 177.122 14.9954 177.084 9.92829C177.077 9.10062 177.298 8.80367 178.164 8.82262C181.968 8.9174 185.777 8.72785 189.587 8.94899C191.994 9.0943 194.332 9.47339 196.569 10.4843C200.397 12.2154 201.705 16.0379 201.307 19.6329C200.953 22.8299 199.216 25.1676 196.506 26.7913C195.912 27.1451 195.886 27.4168 196.24 27.9412C198.989 31.9469 201.724 35.9589 204.454 39.9772C204.706 40.3563 205.237 40.767 205.029 41.1776C204.814 41.6073 204.176 41.3545 203.733 41.3545C201.187 41.3735 198.635 41.3419 196.082 41.3798C195.444 41.3861 195.059 41.1903 194.743 40.6406C192.727 37.1783 190.687 33.7223 188.658 30.2663C188.311 29.6724 186.839 29.2617 186.264 29.6155C185.948 29.8114 186.062 30.1399 186.062 30.4179C186.055 33.7286 186.03 37.0393 186.074 40.35C186.087 41.165 185.853 41.3988 185.044 41.3798C182.7 41.3293 180.356 41.3356 178.012 41.3798C177.267 41.3925 177.077 41.146 177.084 40.4321C177.115 35.3334 177.103 30.2347 177.103 25.136ZM186.068 19.197C186.068 20.2205 186.081 21.244 186.062 22.2676C186.055 22.7035 186.194 22.9183 186.662 22.8994C187.363 22.8678 188.071 22.9246 188.766 22.8615C191.596 22.5898 192.721 20.4922 192.133 17.8575C191.938 16.9919 191.369 16.4423 190.573 16.0948C189.265 15.5261 187.888 15.6209 186.51 15.6209C186.087 15.6209 186.062 15.8989 186.062 16.2148C186.068 17.2067 186.068 18.205 186.068 19.197Z" fill="white"/>
<path d="M172.389 19.9617C172.389 23.2155 172.484 26.4693 172.364 29.7168C172.218 33.5393 170.86 36.8563 167.688 39.2193C165.812 40.6156 163.638 41.3105 161.351 41.6328C158.306 42.0624 155.279 41.955 152.323 41.001C147.849 39.5667 145.31 36.4582 144.438 31.9029C144.242 30.892 144.235 29.8685 144.235 28.8449C144.235 22.5142 144.248 16.1898 144.216 9.85902C144.21 9.07558 144.393 8.79758 145.227 8.82285C147.571 8.87972 149.915 8.86708 152.259 8.82917C153.005 8.81654 153.207 9.06926 153.207 9.78952C153.182 15.7349 153.195 21.6865 153.195 27.6319C153.195 28.9523 153.245 30.2539 153.713 31.5238C154.149 32.6863 154.844 33.5709 156.006 34.0321C157.819 34.7524 159.639 34.7334 161.326 33.7351C162.981 32.7558 163.316 31.012 163.386 29.3061C163.499 26.3493 163.442 23.3924 163.449 20.4292C163.455 16.8848 163.468 13.3403 163.436 9.79584C163.43 9.0819 163.632 8.81654 164.378 8.82917C166.778 8.86708 169.179 8.86708 171.587 8.82917C172.263 8.81654 172.421 9.05031 172.414 9.68843C172.389 13.1128 172.402 16.5436 172.402 19.9743C172.395 19.9617 172.389 19.9617 172.389 19.9617Z" fill="white"/>
<path d="M205.762 35.9082C205.762 34.91 205.787 33.918 205.755 32.9198C205.73 32.25 205.787 31.9404 206.583 32.3195C208.624 33.3052 210.785 33.9559 213.002 34.354C214.582 34.6383 216.187 34.8405 217.798 34.4677C218.941 34.2023 219.737 33.4757 219.864 32.5723C219.996 31.6245 219.478 30.8032 218.417 30.184C216.288 28.9394 213.956 28.1243 211.783 26.9744C210.033 26.052 208.396 24.9147 207.126 23.43C205.117 21.0796 204.839 18.2618 205.85 15.4186C207.038 12.0763 209.628 10.124 212.939 9.15736C216.863 8.00747 220.805 8.26019 224.722 9.31531C225.935 9.64385 227.123 10.0545 228.286 10.541C228.76 10.7432 228.81 10.9454 228.627 11.3877C227.869 13.2262 227.129 15.0711 226.403 16.9223C226.207 17.4214 225.961 17.5036 225.462 17.3014C223.395 16.4737 221.304 15.7408 219.055 15.5513C218.284 15.4881 217.532 15.5134 216.787 15.6397C215.751 15.8103 214.999 16.4674 214.841 17.3014C214.702 18.0343 215.22 18.8809 216.111 19.4243C218.24 20.7195 220.584 21.5851 222.795 22.7287C225.063 23.9038 227.155 25.2748 228.159 27.7895C229.865 32.0731 228.475 37.532 223.819 40.0087C220.325 41.8662 216.616 42.0368 212.806 41.7146C210.57 41.525 208.434 40.969 206.375 40.0718C205.932 39.876 205.749 39.6422 205.768 39.1557C205.787 38.0753 205.762 36.9949 205.762 35.9082Z" fill="white"/>
<path d="M231.116 25.0662C231.116 19.9991 231.135 14.9257 231.097 9.85857C231.09 9.03721 231.343 8.81608 232.146 8.8224C238.009 8.85399 243.866 8.84767 249.729 8.8224C250.437 8.8224 250.708 8.98035 250.689 9.73852C250.639 11.5265 250.632 13.3146 250.689 15.1026C250.715 15.8608 250.443 16.0187 249.742 16.0124C246.81 15.9745 243.878 16.0187 240.953 15.9808C240.264 15.9745 240.024 16.164 240.062 16.8653C240.119 17.9773 240.106 19.0956 240.062 20.2076C240.037 20.871 240.277 21.0795 240.921 21.0732C243.619 21.0479 246.311 21.0858 249.009 21.0479C249.742 21.0353 249.969 21.2627 249.95 21.9956C249.906 23.7837 249.912 25.5717 249.95 27.3597C249.963 27.9852 249.748 28.1558 249.141 28.1558C246.418 28.1305 243.689 28.1621 240.966 28.1305C240.29 28.1242 240.031 28.2885 240.062 29.0087C240.119 30.4745 240.106 31.9403 240.069 33.4061C240.05 34.0632 240.29 34.2717 240.934 34.2654C243.891 34.2401 246.854 34.278 249.811 34.2401C250.512 34.2338 250.708 34.4486 250.696 35.1373C250.651 36.9822 250.664 38.8271 250.689 40.6783C250.696 41.209 250.531 41.3922 249.988 41.3922C243.954 41.3796 237.914 41.3733 231.88 41.3985C231.116 41.4049 231.122 41.0131 231.122 40.4698C231.122 35.3205 231.116 30.1902 231.116 25.0662Z" fill="white"/>
<path d="M32.6207 25.0602C32.6207 19.9931 32.6333 14.9196 32.6081 9.8525C32.6017 9.13224 32.7913 8.90479 33.5368 8.90479C39.4569 8.93006 45.3706 8.93006 51.2907 8.90479C51.9794 8.90479 52.2068 9.08801 52.1879 9.79564C52.1373 11.5837 52.1436 13.3717 52.1879 15.1534C52.2005 15.8042 52.0299 16.0063 51.3602 15.9937C48.3717 15.9558 45.3833 16 42.3948 15.9621C41.6872 15.9495 41.4976 16.1643 41.5292 16.8466C41.5798 17.9839 41.5735 19.1338 41.5292 20.2711C41.504 20.8965 41.7251 21.0735 42.3316 21.0671C45.0295 21.0419 47.721 21.0798 50.4188 21.0419C51.158 21.0292 51.455 21.1809 51.4297 21.9959C51.3665 23.7207 51.3792 25.4519 51.4234 27.1831C51.4423 27.897 51.2528 28.1371 50.5073 28.1245C47.7842 28.0802 45.0547 28.1245 42.3316 28.0929C41.7314 28.0866 41.5103 28.2382 41.5292 28.87C41.5735 30.3611 41.5735 31.8585 41.5292 33.3495C41.5103 34.0193 41.6935 34.2593 42.4074 34.253C45.3643 34.2151 48.3275 34.2657 51.2844 34.2151C52.0426 34.2025 52.2068 34.4426 52.1879 35.1565C52.1373 36.9698 52.15 38.7894 52.1815 40.6027C52.1879 41.1587 52.0426 41.3609 51.4487 41.3609C45.4149 41.3419 39.3748 41.3356 33.341 41.3672C32.646 41.3672 32.6081 41.0639 32.6144 40.5206C32.6207 35.3713 32.6207 30.2158 32.6207 25.0602Z" fill="white"/>
<path d="M106.935 36.3254C106.935 37.3236 106.91 38.3156 106.948 39.3139C106.96 39.794 106.79 40.0594 106.354 40.2489C104.673 40.9818 102.898 41.3609 101.103 41.6136C97.9128 42.0559 94.7411 41.9864 91.6389 40.9882C87.7533 39.7372 84.9544 37.2542 83.5518 33.4127C81.5616 27.9918 81.4921 22.5077 83.735 17.1436C85.82 12.146 89.813 9.47344 95.057 8.66472C99.069 8.04555 102.993 8.58259 106.777 10.0547C108.369 10.6739 108.357 10.6739 107.75 12.2471C107.163 13.7761 106.581 15.3051 106.006 16.8404C105.798 17.3963 105.608 17.6807 104.875 17.3648C103.056 16.575 101.186 15.9369 99.1701 15.7347C95.7773 15.3935 93.1869 16.9604 92.1254 20.2079C91.0198 23.5944 91.0071 26.9999 92.1254 30.3864C92.9847 33.0021 95.2466 34.5563 98.254 34.6258C100.977 34.689 103.498 33.855 106 32.9326C106.948 32.5851 106.941 32.5661 106.948 33.6086C106.941 34.5058 106.935 35.4156 106.935 36.3254Z" fill="white"/>
<path d="M63.5795 28.6614C63.5795 24.7631 63.5606 20.8712 63.5922 16.9729C63.5985 16.2716 63.39 16.0757 62.7013 16.0884C60.5658 16.1326 58.424 16.0821 56.2884 16.1137C55.6629 16.1263 55.486 15.9115 55.4987 15.3049C55.5303 13.4285 55.5366 11.552 55.4987 9.68182C55.486 9.05001 55.7135 8.88574 56.3137 8.88574C64.1355 8.89838 71.9573 8.89838 79.7791 8.88574C80.2972 8.88574 80.512 9.0121 80.5057 9.5681C80.4805 11.533 80.4741 13.4916 80.5057 15.4566C80.5184 16.0505 80.2467 16.1137 79.7665 16.1073C77.631 16.0884 75.4892 16.1326 73.3536 16.0821C72.646 16.0694 72.4817 16.2969 72.4881 16.9729C72.5133 24.7631 72.4944 32.5597 72.5196 40.3499C72.5196 41.1334 72.3491 41.3987 71.5214 41.3798C69.1521 41.3166 66.7765 41.3355 64.4009 41.3734C63.7248 41.3861 63.5669 41.165 63.5732 40.5268C63.5922 36.5717 63.5795 32.6166 63.5795 28.6614Z" fill="white"/>
</g>
<g filter="url(#filter0_b_273_188)">
<path fill-rule="evenodd" clip-rule="evenodd" d="M270.542 0C268.333 0 266.542 1.79086 266.542 4V45.7617C266.542 47.9709 268.333 49.7617 270.542 49.7617H483.28C485.489 49.7617 487.28 47.9709 487.28 45.7617V4C487.28 1.79086 485.489 0 483.28 0H270.542ZM307.628 41.6972H314.926V7.65503H304.719L296.451 28.2232L288.182 7.65503H278.026V41.6972H285.273V17.8626L294.868 41.6972H298.033L307.628 17.8626V41.6972ZM345.164 41.6972H353.433L340.316 7.65503H331.231L318.063 41.6972H326.332L328.475 35.9299H343.072L345.164 41.6972ZM335.773 14.9024L341.081 29.5502H330.466L335.773 14.9024ZM384.136 41.6972H375.817L369.131 29.6012H363.823V41.6972H356.576V7.65503H372.5C376.004 7.65503 378.778 8.67578 380.819 10.7173C382.895 12.7588 383.932 15.3957 383.932 18.6281C383.932 21.4182 383.201 23.6809 381.738 25.4161C380.309 27.1514 378.556 28.2572 376.481 28.7336L384.136 41.6972ZM371.428 23.2215C372.925 23.2215 374.15 22.8132 375.103 21.9966C376.055 21.146 376.532 20.0232 376.532 18.6281C376.532 17.2331 376.055 16.1273 375.103 15.3107C374.15 14.46 372.925 14.0347 371.428 14.0347H363.823V23.2215H371.428ZM409.583 41.6972H418.514L404.071 23.6298L417.596 7.65503H408.664L396.619 22.8643V7.65503H389.372V41.6972H396.619V31.2344L399.273 28.0701L409.583 41.6972ZM445.908 41.6972H421.819V7.65503H445.908V14.0347H429.066V21.231H445.551V27.6108H429.066V35.3174H445.908V41.6972ZM459.434 41.6972H466.732V14.0347H476.633V7.65503H449.481V14.0347H459.434V41.6972Z" fill="#C31AFF"/>
<path fill-rule="evenodd" clip-rule="evenodd" d="M270.542 0C268.333 0 266.542 1.79086 266.542 4V45.7617C266.542 47.9709 268.333 49.7617 270.542 49.7617H483.28C485.489 49.7617 487.28 47.9709 487.28 45.7617V4C487.28 1.79086 485.489 0 483.28 0H270.542ZM307.628 41.6972H314.926V7.65503H304.719L296.451 28.2232L288.182 7.65503H278.026V41.6972H285.273V17.8626L294.868 41.6972H298.033L307.628 17.8626V41.6972ZM345.164 41.6972H353.433L340.316 7.65503H331.231L318.063 41.6972H326.332L328.475 35.9299H343.072L345.164 41.6972ZM335.773 14.9024L341.081 29.5502H330.466L335.773 14.9024ZM384.136 41.6972H375.817L369.131 29.6012H363.823V41.6972H356.576V7.65503H372.5C376.004 7.65503 378.778 8.67578 380.819 10.7173C382.895 12.7588 383.932 15.3957 383.932 18.6281C383.932 21.4182 383.201 23.6809 381.738 25.4161C380.309 27.1514 378.556 28.2572 376.481 28.7336L384.136 41.6972ZM371.428 23.2215C372.925 23.2215 374.15 22.8132 375.103 21.9966C376.055 21.146 376.532 20.0232 376.532 18.6281C376.532 17.2331 376.055 16.1273 375.103 15.3107C374.15 14.46 372.925 14.0347 371.428 14.0347H363.823V23.2215H371.428ZM409.583 41.6972H418.514L404.071 23.6298L417.596 7.65503H408.664L396.619 22.8643V7.65503H389.372V41.6972H396.619V31.2344L399.273 28.0701L409.583 41.6972ZM445.908 41.6972H421.819V7.65503H445.908V14.0347H429.066V21.231H445.551V27.6108H429.066V35.3174H445.908V41.6972ZM459.434 41.6972H466.732V14.0347H476.633V7.65503H449.481V14.0347H459.434V41.6972Z" fill="#F5F5F5"/>
</g>
<defs>
<filter id="filter0_b_273_188" x="206.542" y="-60" width="340.738" height="169.762" filterUnits="userSpaceOnUse" color-interpolation-filters="sRGB">
<feFlood flood-opacity="0" result="BackgroundImageFix"/>
<feGaussianBlur in="BackgroundImage" stdDeviation="30"/>
<feComposite in2="SourceAlpha" operator="in" result="effect1_backgroundBlur_273_188"/>
<feBlend mode="normal" in="SourceGraphic" in2="effect1_backgroundBlur_273_188" result="shape"/>
</filter>
<clipPath id="clip0_273_188">
<rect width="250.69" height="33.4986" fill="white" transform="translate(0 8.40576)"/>
</clipPath>
</defs>
</svg>
