<svg width="18" height="30" viewBox="0 0 18 30" fill="none" xmlns="http://www.w3.org/2000/svg">
<path fill-rule="evenodd" clip-rule="evenodd" d="M4.77202 0.818732C3.68037 -0.272911 1.91047 -0.27291 0.818827 0.818732C-0.272816 1.91038 -0.272816 3.68028 0.818827 4.77192L10.7017 14.6548L0.818732 24.5378C-0.272911 25.6294 -0.272911 27.3993 0.818732 28.491C1.91037 29.5826 3.68028 29.5826 4.77192 28.491L16.6121 16.6508C16.6186 16.6444 16.6251 16.638 16.6316 16.6315C17.7232 15.5398 17.7232 13.7699 16.6316 12.6783L16.6315 12.6782L4.77202 0.818732Z" fill="url(#paint0_linear_273_627)"/>
<path fill-rule="evenodd" clip-rule="evenodd" d="M4.77202 0.818732C3.68037 -0.272911 1.91047 -0.27291 0.818827 0.818732C-0.272816 1.91038 -0.272816 3.68028 0.818827 4.77192L10.7017 14.6548L0.818732 24.5378C-0.272911 25.6294 -0.272911 27.3993 0.818732 28.491C1.91037 29.5826 3.68028 29.5826 4.77192 28.491L16.6121 16.6508C16.6186 16.6444 16.6251 16.638 16.6316 16.6315C17.7232 15.5398 17.7232 13.7699 16.6316 12.6783L16.6315 12.6782L4.77202 0.818732Z" fill="#2F80ED"/>
<defs>
<linearGradient id="paint0_linear_273_627" x1="9.03077" y1="27.3415" x2="9.94889" y2="11.3978" gradientUnits="userSpaceOnUse">
<stop stop-color="#FFBC57"/>
<stop offset="1" stop-color="#FF7777"/>
</linearGradient>
</defs>
</svg>
