<svg width="22" height="22" viewBox="0 0 22 22" fill="none" xmlns="http://www.w3.org/2000/svg">
<path fill-rule="evenodd" clip-rule="evenodd" d="M1.86779 1.06503C1.58703 1.16217 1.36989 1.32165 1.2291 1.53408C0.979114 1.91117 0.993858 1.39297 1.00504 9.41529L1.01521 16.7212L1.10548 16.9204C1.26993 17.2834 1.63314 17.5602 2.04808 17.6388C2.1834 17.6645 4.03233 17.6786 7.25844 17.6786H12.2591V17.2487V16.8189H7.1719H2.08469L1.97374 16.708C1.89963 16.6339 1.85461 16.5398 1.83819 16.4247C1.82465 16.3298 1.81875 13.0653 1.82505 9.17015L1.8365 2.08808L1.96435 1.96033L2.0922 1.83259H11.0076H19.923L20.0509 1.96033L20.1787 2.08808L20.1902 9.17015C20.1965 13.0653 20.1906 16.3298 20.177 16.4247C20.1606 16.5398 20.1156 16.6339 20.0415 16.708C19.9314 16.818 19.9268 16.8189 19.4386 16.8189H18.9468V17.2537V17.6886L19.4845 17.6684C19.8493 17.6547 20.0825 17.6266 20.2094 17.5811C20.4644 17.4896 20.7909 17.1835 20.9068 16.9271L21 16.7212V9.33549V1.94982L20.8975 1.73153C20.7673 1.45404 20.5576 1.24447 20.2798 1.11434L20.0614 1.01196L11.0663 1.00328C2.4906 0.995039 2.06169 0.997892 1.86779 1.06503ZM3.08573 3.11394C3.07451 3.14317 3.07044 3.33282 3.07666 3.5354L3.088 3.9037H3.49864H3.90929V3.49339V3.08307L3.50772 3.07194C3.19735 3.0633 3.10153 3.07283 3.08573 3.11394ZM5.47049 3.10554C5.27185 3.16318 5.20803 3.27037 5.15453 3.63637C5.02906 4.49502 4.49824 5.02296 3.63365 5.14915C3.23681 5.20702 3.12918 5.29084 3.08862 5.57353C3.07548 5.66528 3.06997 7.41971 3.07634 9.47226C3.08737 12.9982 3.09191 13.2099 3.15879 13.3084C3.24631 13.4372 3.28186 13.4512 3.68938 13.5177C4.1039 13.5853 4.40081 13.7299 4.66375 13.9923C4.93266 14.2606 5.09817 14.6114 5.15101 15.0252C5.18503 15.2915 5.20834 15.3559 5.30604 15.4535L5.42102 15.5684H8.21431H11.0076V15.1581V14.7477H8.48659H5.96553L5.92302 14.5817C5.731 13.8311 5.26462 13.2573 4.57 12.917C4.44321 12.8549 4.24712 12.7824 4.13417 12.756L3.92884 12.7079V9.33311V5.95829L4.09506 5.91565C4.98245 5.68803 5.69505 4.97599 5.92287 4.08932L5.96553 3.92324H11.0076H16.0497L16.0923 4.08932C16.3202 4.97599 17.0328 5.68803 17.9202 5.91565L18.0864 5.95829V7.63714V9.31595H18.5166H18.9468L18.9465 7.46953C18.9464 6.35911 18.9307 5.56704 18.9072 5.48244C18.8465 5.26407 18.7485 5.20268 18.3735 5.14793C17.5175 5.02304 16.9857 4.49163 16.8607 3.63637C16.8059 3.26162 16.7445 3.16369 16.5259 3.10304C16.3464 3.05322 5.64249 3.05564 5.47049 3.10554ZM18.1037 3.11394C18.0924 3.14317 18.0884 3.33282 18.0946 3.5354L18.1059 3.9037H18.5166H18.9272V3.49339V3.08307L18.5256 3.07194C18.2153 3.0633 18.1195 3.07283 18.1037 3.11394ZM6.55217 5.29397L6.43183 5.41421V6.4024C6.43183 7.33878 6.43602 7.39595 6.51181 7.49224C6.55585 7.54812 6.65702 7.61193 6.73669 7.63405C6.93658 7.6895 15.0786 7.6895 15.2785 7.63405C15.3582 7.61193 15.4594 7.54812 15.5034 7.49224C15.5792 7.39595 15.5834 7.33878 15.5834 6.4024V5.41421L15.463 5.29397L15.3427 5.17373H11.0076H6.67251L6.55217 5.29397ZM14.7621 6.40467V6.81498H11.0076H7.25312V6.40467V5.99436H11.0076H14.7621V6.40467ZM6.00163 9.33549V9.74581H6.41228H6.82292V9.33549V8.92518H6.41228H6.00163V9.33549ZM7.68333 9.33549V9.74581H8.09397H8.50462V9.33549V8.92518H8.09397H7.68333V9.33549ZM14.9583 9.80575C13.0203 10.156 11.6718 11.9263 11.8709 13.8587C11.9192 14.328 12.0303 14.7291 12.2219 15.1262C12.3787 15.4513 12.7401 15.9635 12.9594 16.1716L13.0804 16.2864L13.0806 18.4186C13.0807 19.7946 13.0955 20.6034 13.1221 20.6993C13.1682 20.8651 13.3441 20.9998 13.5149 21C13.6477 21.0002 13.7491 20.9291 14.675 20.1867C15.1019 19.8444 15.488 19.5412 15.5331 19.5131C15.6087 19.4659 15.6816 19.5153 16.4828 20.1564C16.9601 20.5383 17.4109 20.8863 17.4845 20.9297C17.6618 21.0342 17.8509 21.0002 17.9862 20.8395L18.0864 20.7206V18.5046V16.2886L18.3041 16.0751C18.7026 15.6841 19.0476 15.0777 19.2284 14.4506C19.3048 14.1854 19.3173 14.0515 19.3173 13.4973C19.3173 12.7753 19.2621 12.5009 19.0055 11.9458C18.2864 10.3906 16.6142 9.50645 14.9583 9.80575ZM6.00163 10.9963V11.4261H8.50462H11.0076V10.9963V10.5664H8.50462H6.00163V10.9963ZM16.2873 10.6683C16.4272 10.6993 16.7087 10.8069 16.9131 10.9073C17.2251 11.0605 17.3419 11.1467 17.6417 11.4451C17.9565 11.7585 18.022 11.8488 18.1954 12.2093C18.3036 12.4341 18.4155 12.7147 18.4441 12.8329C18.5124 13.115 18.5111 13.8875 18.4419 14.1616C18.1804 15.1967 17.349 16.0485 16.3403 16.3149C15.923 16.4251 15.2876 16.4265 14.8773 16.3179C14.0231 16.092 13.364 15.5523 12.9836 14.7673C12.7755 14.3377 12.6893 13.9658 12.6893 13.4973C12.6893 13.0287 12.7755 12.6569 12.9836 12.2272C13.5862 10.9835 14.9043 10.3616 16.2873 10.6683ZM15.0629 11.4848C13.9868 11.7804 13.3174 12.8887 13.5696 13.9572C13.8838 15.289 15.3301 15.9548 16.5605 15.3342C16.8291 15.1987 17.2002 14.8527 17.3793 14.5706C17.6692 14.1141 17.7532 13.4065 17.5815 12.8662C17.3718 12.2057 16.7928 11.6638 16.1062 11.4851C15.8332 11.414 15.321 11.4139 15.0629 11.4848ZM16.1242 12.3701C16.8882 12.7392 17.0762 13.7683 16.4871 14.3563C16.2136 14.6293 15.9821 14.7262 15.6029 14.7265C15.1947 14.7268 14.9511 14.6221 14.6864 14.3327C14.2503 13.856 14.2442 13.1517 14.6722 12.6762C14.8572 12.4705 14.985 12.3872 15.251 12.2989C15.4721 12.2255 15.8964 12.2601 16.1242 12.3701ZM3.06844 15.1581V15.5684H3.49864H3.92884V15.1581V14.7477H3.49864H3.06844V15.1581ZM14.7859 17.1569C15.0155 17.2106 15.2348 17.2281 15.642 17.225C16.2238 17.2206 16.5351 17.1616 17.0301 16.9618L17.2651 16.867V18.2949C17.2651 19.651 17.2616 19.7198 17.1966 19.6642C16.9372 19.4423 15.9187 18.6442 15.812 18.5792C15.664 18.489 15.5393 18.4782 15.415 18.5446C15.3683 18.5696 15.0269 18.8334 14.6564 19.1308C14.2859 19.4282 13.9733 19.6715 13.9618 19.6715C13.9502 19.6715 13.9408 19.0404 13.9408 18.269V16.8665L14.209 16.9756C14.3566 17.0355 14.6162 17.1171 14.7859 17.1569Z" fill="url(#paint0_linear_273_260)" stroke="url(#paint1_linear_273_260)" stroke-width="0.5"/>
<defs>
<linearGradient id="paint0_linear_273_260" x1="-1.22222" y1="9.88889" x2="23.2222" y2="7.11111" gradientUnits="userSpaceOnUse">
<stop stop-color="#FFA31A"/>
<stop offset="1" stop-color="#C31AFF"/>
</linearGradient>
<linearGradient id="paint1_linear_273_260" x1="-3.44444" y1="11" x2="28.7778" y2="6" gradientUnits="userSpaceOnUse">
<stop stop-color="#FFA31A"/>
<stop offset="1" stop-color="#C31AFF"/>
</linearGradient>
</defs>
</svg>
