<svg width="36" height="37" viewBox="0 0 36 37" fill="none" xmlns="http://www.w3.org/2000/svg">
<path fill-rule="evenodd" clip-rule="evenodd" d="M20 2.25244C20 1.03165 19.0104 0.0419922 17.7896 0.0419922C16.5687 0.0419922 15.5791 1.03165 15.5791 2.25244V16.042H2.21045C0.989624 16.042 0 17.0316 0 18.2524C0 19.4732 0.989624 20.4629 2.21045 20.4629H15.5791V33.8315C15.5791 35.0523 16.5687 36.042 17.7896 36.042C19.0104 36.042 20 35.0523 20 33.8315V20.4629H33.7896C35.0104 20.4629 36 19.4732 36 18.2524C36 17.0316 35.0104 16.042 33.7896 16.042H20V2.25244Z" fill="black"/>
</svg>
