<svg width="14" height="9" viewBox="0 0 14 9" fill="none" xmlns="http://www.w3.org/2000/svg">
<path fill-rule="evenodd" clip-rule="evenodd" d="M1.079 3.98349C1.01953 4.06617 0.96006 4.14884 0.899658 4.23076V4.27014C0.929991 4.31237 0.960209 4.35468 0.990425 4.39699C1.0567 4.48978 1.12297 4.58257 1.19045 4.67453C2.02129 5.80777 3.01415 6.76323 4.25706 7.43637C5.39759 8.05398 6.61253 8.32252 7.90938 8.16325C9.0003 8.02937 9.98135 7.61238 10.8789 6.99083C11.8996 6.28422 12.7432 5.40259 13.4338 4.37291C13.447 4.35335 13.4622 4.3352 13.4774 4.31704C13.485 4.30796 13.4926 4.29888 13.5 4.28963V4.25025C13.4963 4.24645 13.4925 4.24277 13.4886 4.23909C13.4809 4.23174 13.4732 4.22439 13.4669 4.21599C13.3968 4.12167 13.328 4.02623 13.2593 3.93078C13.1134 3.72839 12.9675 3.52595 12.8089 3.33397C12.0868 2.45923 11.2497 1.71601 10.2552 1.15982C9.3474 0.652265 8.37816 0.356157 7.3343 0.33391C6.11443 0.307921 4.99201 0.647343 3.94953 1.26673C2.98836 1.83807 2.17899 2.58366 1.47849 3.44954C1.33884 3.62228 1.20892 3.80289 1.079 3.98349ZM9.74726 6.80221C8.97313 7.20444 8.05921 7.42239 7.09489 7.41983C6.00693 7.41097 4.93452 7.05265 3.95977 6.39132C3.16575 5.85246 2.50541 5.17992 1.95986 4.39201C1.89902 4.3042 1.8939 4.24454 1.95769 4.1524C2.66095 3.1363 3.53982 2.31571 4.64058 1.74574C5.30879 1.40002 6.02032 1.19565 6.77279 1.13915C8.04858 1.04327 9.21568 1.36635 10.2881 2.05031C11.1634 2.60847 11.8803 3.32964 12.4642 4.18607C12.505 4.24572 12.5101 4.28766 12.4672 4.35027C11.7572 5.38645 10.8659 6.22102 9.74726 6.80221ZM7.20195 6.63345C8.50746 6.63286 9.56451 5.57187 9.56313 4.2634C9.56175 2.9634 8.50077 1.90675 7.19821 1.90754C5.89092 1.90832 4.83663 2.96655 4.83741 4.27699C4.8382 5.5766 5.89919 6.63404 7.20195 6.63345Z" fill="black"/>
</svg>
