<svg width="10" height="12" viewBox="0 0 10 12" fill="none" xmlns="http://www.w3.org/2000/svg">
<path d="M5.66387 11.7626C5.44016 11.7626 5.21644 11.7626 4.99272 11.7626C4.84686 11.7406 4.70077 11.7202 4.55514 11.6965C3.40053 11.5078 2.456 10.9645 1.72109 10.097C0.948824 9.18527 0.618171 8.13132 0.694234 6.95598C0.739873 6.25198 0.952851 5.60652 1.38574 5.03467C1.53765 4.83408 1.70767 4.64598 1.86785 4.454C1.80007 4.72454 1.7155 4.9841 1.67299 5.2499C1.6117 5.63214 1.68261 5.99952 1.89872 6.33269C2.17255 6.75517 2.66607 6.86343 3.06071 6.59074C3.42156 6.3413 3.554 6.00189 3.48734 5.58586C3.44998 5.35256 3.39382 5.12162 3.36698 4.88725C3.26966 4.04077 3.62738 3.3626 4.24842 2.79957C4.46923 2.59941 4.73254 2.44295 4.97572 2.26517C5.21667 2.08912 5.38423 1.86808 5.41667 1.57064C5.44732 1.28934 5.41175 1.01321 5.3283 0.742676C5.33568 0.742676 5.34329 0.742676 5.35067 0.742676C5.42987 0.804876 5.50951 0.86686 5.58803 0.929705C5.92987 1.20282 6.19453 1.52437 6.25471 1.963C6.29655 2.26818 6.24889 2.56971 6.18536 2.8693C6.10437 3.25154 6.01668 3.63313 6.08379 4.0285C6.15493 4.44819 6.33748 4.80546 6.69923 5.06201C7.23302 5.4408 7.8912 5.31403 8.2223 4.76371C8.46145 4.36619 8.48516 3.92735 8.45317 3.48183C8.44892 3.42329 8.44378 3.36475 8.43908 3.30621C8.45049 3.29954 8.46167 3.29265 8.47308 3.28598C8.48293 3.30513 8.49009 3.32601 8.50284 3.34323C8.66593 3.56512 8.84937 3.77561 8.99009 4.00978C9.43462 4.75058 9.71784 5.55121 9.88608 6.38951C10.0089 7.00096 10.0167 7.61306 9.8778 8.22386C9.65117 9.22143 9.12947 10.049 8.3223 10.7093C7.68426 11.2314 6.94868 11.5564 6.12361 11.6939C5.97081 11.7197 5.81712 11.74 5.66387 11.7626ZM8.12051 8.35494C8.03415 8.71565 7.81647 8.98274 7.49969 9.17881C7.03056 9.46915 6.50885 9.57612 5.95829 9.57655C5.64575 9.57698 5.34128 9.53264 5.05402 9.40975C4.96677 9.37251 4.88758 9.31742 4.77908 9.25586C4.8236 9.25156 4.83142 9.24854 4.83769 9.25027C5.69072 9.49928 6.42071 9.28449 7.03257 8.68595C7.62207 8.10936 7.66457 7.2956 7.12631 6.68028C6.91758 6.44181 6.65136 6.24789 6.40013 6.04687C6.07954 5.79054 5.73681 5.55961 5.42383 5.29553C5.14776 5.06287 4.97304 4.76048 4.94015 4.40105C4.92449 4.22952 4.93747 4.05562 4.93747 3.88516C4.94597 3.88366 4.93635 3.88258 4.93232 3.88645C4.4746 4.33046 4.25267 4.86529 4.48377 5.50171C4.62158 5.88115 4.86073 6.20851 5.06118 6.55588C5.17282 6.74936 5.28042 6.94888 5.35492 7.157C5.46902 7.47596 5.38736 7.76458 5.13657 8.00498C4.92919 8.20363 4.67796 8.32179 4.39227 8.37086C3.85088 8.46405 3.38465 8.33643 3.03632 7.9105C2.93252 7.78351 2.85959 7.63329 2.77234 7.49318C2.77032 7.49447 2.76227 7.49662 2.75914 7.50157C2.74952 7.51685 2.74102 7.53299 2.73363 7.54935C2.50052 8.06718 2.44974 8.59642 2.65869 9.12996C2.95713 9.89228 3.55982 10.3462 4.3435 10.584C5.11085 10.8169 5.88401 10.7809 6.63525 10.5141C7.37463 10.2515 7.88963 9.7696 8.08538 9.01309C8.14086 8.79808 8.16435 8.57877 8.12051 8.35494Z" fill="#FF9900"/>
<path d="M5.66387 11.7626C5.44016 11.7626 5.21644 11.7626 4.99272 11.7626C4.84686 11.7406 4.70077 11.7202 4.55514 11.6965C3.40053 11.5078 2.456 10.9645 1.72109 10.097C0.948824 9.18527 0.618171 8.13132 0.694234 6.95598C0.739873 6.25198 0.952851 5.60652 1.38574 5.03467C1.53765 4.83408 1.70767 4.64598 1.86785 4.454C1.80007 4.72454 1.7155 4.9841 1.67299 5.2499C1.6117 5.63214 1.68261 5.99952 1.89872 6.33269C2.17255 6.75517 2.66607 6.86343 3.06071 6.59074C3.42156 6.3413 3.554 6.00189 3.48734 5.58586C3.44998 5.35256 3.39382 5.12162 3.36698 4.88725C3.26966 4.04077 3.62738 3.3626 4.24842 2.79957C4.46923 2.59941 4.73254 2.44295 4.97572 2.26517C5.21667 2.08912 5.38423 1.86808 5.41667 1.57064C5.44732 1.28934 5.41175 1.01321 5.3283 0.742676C5.33568 0.742676 5.34329 0.742676 5.35067 0.742676C5.42987 0.804876 5.50951 0.86686 5.58803 0.929705C5.92987 1.20282 6.19453 1.52437 6.25471 1.963C6.29655 2.26818 6.24889 2.56971 6.18536 2.8693C6.10437 3.25154 6.01668 3.63313 6.08379 4.0285C6.15493 4.44819 6.33748 4.80546 6.69923 5.06201C7.23302 5.4408 7.8912 5.31403 8.2223 4.76371C8.46145 4.36619 8.48516 3.92735 8.45317 3.48183C8.44892 3.42329 8.44378 3.36475 8.43908 3.30621C8.45049 3.29954 8.46167 3.29265 8.47308 3.28598C8.48293 3.30513 8.49009 3.32601 8.50284 3.34323C8.66593 3.56512 8.84937 3.77561 8.99009 4.00978C9.43462 4.75058 9.71784 5.55121 9.88608 6.38951C10.0089 7.00096 10.0167 7.61306 9.8778 8.22386C9.65117 9.22143 9.12947 10.049 8.3223 10.7093C7.68426 11.2314 6.94868 11.5564 6.12361 11.6939C5.97081 11.7197 5.81712 11.74 5.66387 11.7626ZM8.12051 8.35494C8.03415 8.71565 7.81647 8.98274 7.49969 9.17881C7.03056 9.46915 6.50885 9.57612 5.95829 9.57655C5.64575 9.57698 5.34128 9.53264 5.05402 9.40975C4.96677 9.37251 4.88758 9.31742 4.77908 9.25586C4.8236 9.25156 4.83142 9.24854 4.83769 9.25027C5.69072 9.49928 6.42071 9.28449 7.03257 8.68595C7.62207 8.10936 7.66457 7.2956 7.12631 6.68028C6.91758 6.44181 6.65136 6.24789 6.40013 6.04687C6.07954 5.79054 5.73681 5.55961 5.42383 5.29553C5.14776 5.06287 4.97304 4.76048 4.94015 4.40105C4.92449 4.22952 4.93747 4.05562 4.93747 3.88516C4.94597 3.88366 4.93635 3.88258 4.93232 3.88645C4.4746 4.33046 4.25267 4.86529 4.48377 5.50171C4.62158 5.88115 4.86073 6.20851 5.06118 6.55588C5.17282 6.74936 5.28042 6.94888 5.35492 7.157C5.46902 7.47596 5.38736 7.76458 5.13657 8.00498C4.92919 8.20363 4.67796 8.32179 4.39227 8.37086C3.85088 8.46405 3.38465 8.33643 3.03632 7.9105C2.93252 7.78351 2.85959 7.63329 2.77234 7.49318C2.77032 7.49447 2.76227 7.49662 2.75914 7.50157C2.74952 7.51685 2.74102 7.53299 2.73363 7.54935C2.50052 8.06718 2.44974 8.59642 2.65869 9.12996C2.95713 9.89228 3.55982 10.3462 4.3435 10.584C5.11085 10.8169 5.88401 10.7809 6.63525 10.5141C7.37463 10.2515 7.88963 9.7696 8.08538 9.01309C8.14086 8.79808 8.16435 8.57877 8.12051 8.35494Z" fill="white"/>
</svg>
