<svg width="10" height="12" viewBox="0 0 10 12" fill="none" xmlns="http://www.w3.org/2000/svg">
<path d="M5.51811 11.852C5.30362 11.852 5.08914 11.852 4.87466 11.852C4.73482 11.8301 4.59476 11.8098 4.45513 11.7862C3.34819 11.5981 2.44265 11.0567 1.73808 10.1921C0.99769 9.28359 0.680686 8.23327 0.75361 7.06199C0.797364 6.36042 1.00155 5.71719 1.41657 5.14731C1.56221 4.94741 1.72521 4.75996 1.87878 4.56864C1.81379 4.83824 1.73272 5.09691 1.69197 5.36179C1.6332 5.74271 1.70119 6.10883 1.90838 6.44085C2.1709 6.86188 2.64405 6.96976 3.0224 6.69801C3.36836 6.44943 3.49533 6.11119 3.43141 5.6966C3.3956 5.4641 3.34176 5.23396 3.31602 5.00039C3.22272 4.15683 3.56568 3.481 4.16108 2.91992C4.37277 2.72045 4.62522 2.56452 4.85836 2.38736C5.08936 2.21191 5.25 1.99164 5.2811 1.69523C5.31049 1.4149 5.27639 1.13972 5.19638 0.870117C5.20346 0.870117 5.21075 0.870117 5.21783 0.870117C5.29376 0.932102 5.37011 0.993873 5.4454 1.0565C5.77313 1.32868 6.02686 1.64911 6.08455 2.08623C6.12466 2.39036 6.07898 2.69085 6.01806 2.98941C5.94042 3.37033 5.85634 3.75061 5.92069 4.14461C5.98889 4.56285 6.16391 4.91889 6.51073 5.17455C7.02248 5.55204 7.65349 5.42571 7.97092 4.87728C8.2002 4.48113 8.22293 4.0438 8.19226 3.59983C8.18819 3.54149 8.18326 3.48315 8.17875 3.42481C8.18969 3.41816 8.20041 3.4113 8.21135 3.40465C8.22079 3.42374 8.22765 3.44454 8.23988 3.4617C8.39624 3.68283 8.57211 3.89259 8.70702 4.12595C9.13319 4.8642 9.40473 5.66207 9.56602 6.49747C9.68377 7.10682 9.69128 7.7168 9.55808 8.3255C9.34081 9.31962 8.84064 10.1443 8.06679 10.8023C7.45509 11.3227 6.74987 11.6465 5.95887 11.7836C5.81238 11.8093 5.66503 11.8295 5.51811 11.852ZM7.87333 8.45612C7.79054 8.81559 7.58185 9.08176 7.27814 9.27716C6.82837 9.56649 6.3282 9.67309 5.80036 9.67352C5.50073 9.67395 5.20882 9.62976 4.93343 9.50729C4.84978 9.47019 4.77385 9.41528 4.66983 9.35394C4.71251 9.34965 4.72002 9.34665 4.72603 9.34836C5.54384 9.59652 6.2437 9.38247 6.83031 8.78599C7.39546 8.2114 7.43622 7.40044 6.92017 6.78724C6.72006 6.54959 6.46483 6.35634 6.22397 6.15602C5.91661 5.90057 5.58803 5.67043 5.28797 5.40726C5.0233 5.17541 4.85579 4.87406 4.82426 4.51588C4.80924 4.34494 4.82168 4.17163 4.82168 4.00176C4.82983 4.00026 4.82061 3.99919 4.81675 4.00305C4.37792 4.44553 4.16516 4.97851 4.38672 5.61274C4.51884 5.99087 4.74812 6.31709 4.94029 6.66327C5.04732 6.85609 5.15048 7.05491 5.22191 7.26231C5.33129 7.58018 5.25301 7.8678 5.01257 8.10737C4.81375 8.30534 4.57289 8.42309 4.29899 8.47199C3.77995 8.56486 3.33297 8.43767 2.99902 8.01322C2.8995 7.88667 2.82958 7.73696 2.74593 7.59734C2.744 7.59862 2.73628 7.60077 2.73328 7.6057C2.72405 7.62093 2.7159 7.63701 2.70882 7.65331C2.48533 8.16936 2.43665 8.69677 2.63697 9.22847C2.92309 9.98816 3.50091 10.4405 4.25224 10.6775C4.98791 10.9096 5.72916 10.8738 6.44939 10.6078C7.15825 10.3461 7.65198 9.86591 7.83966 9.11201C7.89285 8.89774 7.91537 8.67918 7.87333 8.45612Z" fill="#FF9900"/>
<path d="M5.51811 11.852C5.30362 11.852 5.08914 11.852 4.87466 11.852C4.73482 11.8301 4.59476 11.8098 4.45513 11.7862C3.34819 11.5981 2.44265 11.0567 1.73808 10.1921C0.99769 9.28359 0.680686 8.23327 0.75361 7.06199C0.797364 6.36042 1.00155 5.71719 1.41657 5.14731C1.56221 4.94741 1.72521 4.75996 1.87878 4.56864C1.81379 4.83824 1.73272 5.09691 1.69197 5.36179C1.6332 5.74271 1.70119 6.10883 1.90838 6.44085C2.1709 6.86188 2.64405 6.96976 3.0224 6.69801C3.36836 6.44943 3.49533 6.11119 3.43141 5.6966C3.3956 5.4641 3.34176 5.23396 3.31602 5.00039C3.22272 4.15683 3.56568 3.481 4.16108 2.91992C4.37277 2.72045 4.62522 2.56452 4.85836 2.38736C5.08936 2.21191 5.25 1.99164 5.2811 1.69523C5.31049 1.4149 5.27639 1.13972 5.19638 0.870117C5.20346 0.870117 5.21075 0.870117 5.21783 0.870117C5.29376 0.932102 5.37011 0.993873 5.4454 1.0565C5.77313 1.32868 6.02686 1.64911 6.08455 2.08623C6.12466 2.39036 6.07898 2.69085 6.01806 2.98941C5.94042 3.37033 5.85634 3.75061 5.92069 4.14461C5.98889 4.56285 6.16391 4.91889 6.51073 5.17455C7.02248 5.55204 7.65349 5.42571 7.97092 4.87728C8.2002 4.48113 8.22293 4.0438 8.19226 3.59983C8.18819 3.54149 8.18326 3.48315 8.17875 3.42481C8.18969 3.41816 8.20041 3.4113 8.21135 3.40465C8.22079 3.42374 8.22765 3.44454 8.23988 3.4617C8.39624 3.68283 8.57211 3.89259 8.70702 4.12595C9.13319 4.8642 9.40473 5.66207 9.56602 6.49747C9.68377 7.10682 9.69128 7.7168 9.55808 8.3255C9.34081 9.31962 8.84064 10.1443 8.06679 10.8023C7.45509 11.3227 6.74987 11.6465 5.95887 11.7836C5.81238 11.8093 5.66503 11.8295 5.51811 11.852ZM7.87333 8.45612C7.79054 8.81559 7.58185 9.08176 7.27814 9.27716C6.82837 9.56649 6.3282 9.67309 5.80036 9.67352C5.50073 9.67395 5.20882 9.62976 4.93343 9.50729C4.84978 9.47019 4.77385 9.41528 4.66983 9.35394C4.71251 9.34965 4.72002 9.34665 4.72603 9.34836C5.54384 9.59652 6.2437 9.38247 6.83031 8.78599C7.39546 8.2114 7.43622 7.40044 6.92017 6.78724C6.72006 6.54959 6.46483 6.35634 6.22397 6.15602C5.91661 5.90057 5.58803 5.67043 5.28797 5.40726C5.0233 5.17541 4.85579 4.87406 4.82426 4.51588C4.80924 4.34494 4.82168 4.17163 4.82168 4.00176C4.82983 4.00026 4.82061 3.99919 4.81675 4.00305C4.37792 4.44553 4.16516 4.97851 4.38672 5.61274C4.51884 5.99087 4.74812 6.31709 4.94029 6.66327C5.04732 6.85609 5.15048 7.05491 5.22191 7.26231C5.33129 7.58018 5.25301 7.8678 5.01257 8.10737C4.81375 8.30534 4.57289 8.42309 4.29899 8.47199C3.77995 8.56486 3.33297 8.43767 2.99902 8.01322C2.8995 7.88667 2.82958 7.73696 2.74593 7.59734C2.744 7.59862 2.73628 7.60077 2.73328 7.6057C2.72405 7.62093 2.7159 7.63701 2.70882 7.65331C2.48533 8.16936 2.43665 8.69677 2.63697 9.22847C2.92309 9.98816 3.50091 10.4405 4.25224 10.6775C4.98791 10.9096 5.72916 10.8738 6.44939 10.6078C7.15825 10.3461 7.65198 9.86591 7.83966 9.11201C7.89285 8.89774 7.91537 8.67918 7.87333 8.45612Z" fill="black"/>
</svg>
