<svg width="24" height="26" viewBox="0 0 24 26" fill="none" xmlns="http://www.w3.org/2000/svg">
<path d="M16.6823 0.616699C17.0479 0.616699 17.4145 0.616699 17.7801 0.616699C18.5705 1.00021 19.4322 1.28811 20.137 1.79003C21.3698 2.66568 21.5026 4.08238 20.4773 5.1764C19.9273 5.76306 19.2094 6.19437 18.5606 6.68869C18.419 6.79733 18.2521 6.87338 18.0962 6.96356C19.4597 7.06677 20.7748 7.06025 22.09 7.06894C22.7662 7.07329 23.1339 7.36445 23.1405 7.98588C23.1636 10.0675 23.1603 12.149 23.1427 14.2295C23.1383 14.7912 22.82 15.0878 22.2535 15.1345C21.9505 15.1595 21.6443 15.1389 21.2875 15.1389C21.2875 15.4007 21.2875 15.5952 21.2875 15.7896C21.2875 18.5046 21.2787 21.2195 21.2941 23.9345C21.2974 24.4636 21.1316 24.8449 20.6332 25.06C14.5954 25.06 8.55763 25.06 2.51985 25.06C2.02256 24.8449 1.85569 24.4668 1.85789 23.9367C1.87436 21.2065 1.86557 18.4763 1.86557 15.7462C1.86557 15.555 1.86557 15.3637 1.86557 15.1454C1.62187 15.1454 1.4583 15.1465 1.29473 15.1454C0.249642 15.1367 0.00264219 14.8922 0.00154442 13.8645C0.000446637 11.9839 -0.00174892 10.1033 0.00264219 8.22272C0.00483775 7.38183 0.312216 7.07111 1.14982 7.06785C2.46496 7.06242 3.7812 7.06785 5.09634 7.06459C5.24344 7.06459 5.38944 7.03852 5.51788 7.02657C4.79554 6.49097 4.04247 6.0325 3.41564 5.44366C2.12355 4.23013 2.22564 2.6646 3.68569 1.66835C4.35643 1.20988 5.17318 0.961094 5.92406 0.616699C6.28962 0.616699 6.65628 0.616699 7.02184 0.616699C9.7081 1.2968 10.7686 3.50657 11.8444 5.75981C12.9125 3.46312 13.9861 1.28376 16.6823 0.616699ZM3.75375 15.1715C3.75375 17.8875 3.75375 20.5362 3.75375 23.1947C6.06128 23.1947 8.33478 23.1947 10.6072 23.1947C10.6072 20.4971 10.6072 17.8343 10.6072 15.1715C8.30405 15.1715 6.04372 15.1715 3.75375 15.1715ZM19.4048 23.2077C19.4048 20.4982 19.4048 17.8484 19.4048 15.1769C17.1005 15.1769 14.8281 15.1769 12.5437 15.1769C12.5437 17.8712 12.5437 20.534 12.5437 23.2077C14.8435 23.2077 17.1038 23.2077 19.4048 23.2077ZM1.90948 8.8876C1.90948 10.3586 1.90948 11.8231 1.90948 13.2909C4.82738 13.2909 7.72113 13.2909 10.6061 13.2909C10.6061 11.8014 10.6061 10.3499 10.6061 8.8876C7.69258 8.8876 4.82518 8.8876 1.90948 8.8876ZM12.5283 13.2876C15.4736 13.2876 18.3685 13.2876 21.2644 13.2876C21.2644 11.809 21.2644 10.3695 21.2644 8.90607C18.3421 8.90607 15.4484 8.90607 12.5283 8.90607C12.5283 10.376 12.5283 11.8155 12.5283 13.2876ZM13.412 6.84079C13.5657 6.82015 13.6601 6.82667 13.737 6.79299C15.1805 6.15743 16.6329 5.53926 18.0578 4.86242C18.4563 4.67339 18.7812 4.32247 19.1161 4.02045C19.3729 3.78904 19.3686 3.5446 19.1106 3.27408C18.1237 2.23546 16.6878 2.15615 15.6471 3.11872C14.5537 4.12909 13.9664 5.43823 13.412 6.84079ZM10.1505 6.86361C9.73335 5.45235 9.15373 4.2084 8.14597 3.22193C7.16455 2.26045 6.12825 2.18332 4.97997 2.93729C4.19726 3.45117 4.13029 3.85314 4.92947 4.36484C5.97895 5.03734 7.10747 5.59793 8.23049 6.14983C8.83976 6.44968 9.50831 6.63003 10.1505 6.86361Z" fill="#FFA31A"/>
<path d="M16.6823 0.616699C17.0479 0.616699 17.4145 0.616699 17.7801 0.616699C18.5705 1.00021 19.4322 1.28811 20.137 1.79003C21.3698 2.66568 21.5026 4.08238 20.4773 5.1764C19.9273 5.76306 19.2094 6.19437 18.5606 6.68869C18.419 6.79733 18.2521 6.87338 18.0962 6.96356C19.4597 7.06677 20.7748 7.06025 22.09 7.06894C22.7662 7.07329 23.1339 7.36445 23.1405 7.98588C23.1636 10.0675 23.1603 12.149 23.1427 14.2295C23.1383 14.7912 22.82 15.0878 22.2535 15.1345C21.9505 15.1595 21.6443 15.1389 21.2875 15.1389C21.2875 15.4007 21.2875 15.5952 21.2875 15.7896C21.2875 18.5046 21.2787 21.2195 21.2941 23.9345C21.2974 24.4636 21.1316 24.8449 20.6332 25.06C14.5954 25.06 8.55763 25.06 2.51985 25.06C2.02256 24.8449 1.85569 24.4668 1.85789 23.9367C1.87436 21.2065 1.86557 18.4763 1.86557 15.7462C1.86557 15.555 1.86557 15.3637 1.86557 15.1454C1.62187 15.1454 1.4583 15.1465 1.29473 15.1454C0.249642 15.1367 0.00264219 14.8922 0.00154442 13.8645C0.000446637 11.9839 -0.00174892 10.1033 0.00264219 8.22272C0.00483775 7.38183 0.312216 7.07111 1.14982 7.06785C2.46496 7.06242 3.7812 7.06785 5.09634 7.06459C5.24344 7.06459 5.38944 7.03852 5.51788 7.02657C4.79554 6.49097 4.04247 6.0325 3.41564 5.44366C2.12355 4.23013 2.22564 2.6646 3.68569 1.66835C4.35643 1.20988 5.17318 0.961094 5.92406 0.616699C6.28962 0.616699 6.65628 0.616699 7.02184 0.616699C9.7081 1.2968 10.7686 3.50657 11.8444 5.75981C12.9125 3.46312 13.9861 1.28376 16.6823 0.616699ZM3.75375 15.1715C3.75375 17.8875 3.75375 20.5362 3.75375 23.1947C6.06128 23.1947 8.33478 23.1947 10.6072 23.1947C10.6072 20.4971 10.6072 17.8343 10.6072 15.1715C8.30405 15.1715 6.04372 15.1715 3.75375 15.1715ZM19.4048 23.2077C19.4048 20.4982 19.4048 17.8484 19.4048 15.1769C17.1005 15.1769 14.8281 15.1769 12.5437 15.1769C12.5437 17.8712 12.5437 20.534 12.5437 23.2077C14.8435 23.2077 17.1038 23.2077 19.4048 23.2077ZM1.90948 8.8876C1.90948 10.3586 1.90948 11.8231 1.90948 13.2909C4.82738 13.2909 7.72113 13.2909 10.6061 13.2909C10.6061 11.8014 10.6061 10.3499 10.6061 8.8876C7.69258 8.8876 4.82518 8.8876 1.90948 8.8876ZM12.5283 13.2876C15.4736 13.2876 18.3685 13.2876 21.2644 13.2876C21.2644 11.809 21.2644 10.3695 21.2644 8.90607C18.3421 8.90607 15.4484 8.90607 12.5283 8.90607C12.5283 10.376 12.5283 11.8155 12.5283 13.2876ZM13.412 6.84079C13.5657 6.82015 13.6601 6.82667 13.737 6.79299C15.1805 6.15743 16.6329 5.53926 18.0578 4.86242C18.4563 4.67339 18.7812 4.32247 19.1161 4.02045C19.3729 3.78904 19.3686 3.5446 19.1106 3.27408C18.1237 2.23546 16.6878 2.15615 15.6471 3.11872C14.5537 4.12909 13.9664 5.43823 13.412 6.84079ZM10.1505 6.86361C9.73335 5.45235 9.15373 4.2084 8.14597 3.22193C7.16455 2.26045 6.12825 2.18332 4.97997 2.93729C4.19726 3.45117 4.13029 3.85314 4.92947 4.36484C5.97895 5.03734 7.10747 5.59793 8.23049 6.14983C8.83976 6.44968 9.50831 6.63003 10.1505 6.86361Z" fill="url(#paint0_linear_1_8897)"/>
<defs>
<linearGradient id="paint0_linear_1_8897" x1="20.7421" y1="0.616698" x2="0.514586" y2="19.0591" gradientUnits="userSpaceOnUse">
<stop stop-color="#FFCB3A"/>
<stop offset="1" stop-color="#FFA31A"/>
</linearGradient>
</defs>
</svg>
