<svg width="13" height="13" viewBox="0 0 13 13" fill="none" xmlns="http://www.w3.org/2000/svg">
<path fill-rule="evenodd" clip-rule="evenodd" d="M1.79202 0.659182C1.21753 0.784054 0.709598 1.29721 0.586795 1.87682C0.525105 2.168 0.525105 11.0574 0.586795 11.3486C0.711068 11.9352 1.219 12.4432 1.80549 12.5675C2.09661 12.6292 10.9844 12.6292 11.2756 12.5675C11.8621 12.4432 12.37 11.9352 12.4943 11.3486C12.556 11.0574 12.556 2.168 12.4943 1.87682C12.37 1.29023 11.8621 0.782208 11.2756 0.657913C10.9941 0.59823 2.06689 0.59947 1.79202 0.659182ZM11.1252 1.56693C11.3495 1.62927 11.5679 1.87267 11.5994 2.09546C11.6087 2.16165 11.6126 3.70308 11.608 5.52089L11.5997 8.82598L10.9511 8.30786C10.5943 8.02291 10.2441 7.76022 10.1727 7.72415C9.87685 7.57454 9.47437 7.55543 9.16379 7.67626C9.06552 7.71452 8.70385 7.95807 8.2125 8.31689C7.77649 8.63528 7.37576 8.91498 7.32197 8.93845C7.26498 8.96333 7.19283 8.97331 7.14901 8.96238C7.1032 8.95096 6.74704 8.61934 6.23784 8.11399C5.77805 7.6577 5.34348 7.25067 5.27214 7.20953C4.85605 6.96947 4.31061 7.00084 3.92721 7.28686C3.83453 7.356 3.24632 7.84646 2.62005 8.37677L1.48138 9.34098L1.47302 5.77839C1.46844 3.81895 1.47233 2.16165 1.48167 2.09546C1.50078 1.96006 1.61338 1.77669 1.73656 1.68027C1.92209 1.53507 1.72486 1.54084 6.52611 1.53966C9.38991 1.53897 11.0602 1.54886 11.1252 1.56693ZM8.1246 3.09694C7.52027 3.18592 6.95368 3.67497 6.77377 4.26288C6.58622 4.87574 6.74243 5.49361 7.20093 5.95219C8.21685 6.96829 9.92228 6.34958 10.0692 4.91161C10.1542 4.08061 9.52361 3.25834 8.6871 3.10928C8.43308 3.06401 8.35922 3.0624 8.1246 3.09694ZM8.68979 4.05991C9.07846 4.22232 9.26327 4.7265 9.07073 5.09902C8.92562 5.37973 8.68595 5.52882 8.38546 5.52527C8.166 5.52268 8.02405 5.46853 7.8687 5.32817C7.4843 4.9808 7.56637 4.33465 8.02512 4.09693C8.08854 4.06409 8.17934 4.02704 8.22691 4.01467C8.3357 3.98633 8.56811 4.00905 8.68979 4.05991ZM4.76464 7.99549C4.80468 8.01072 4.86066 8.04788 4.88903 8.0781C5.298 8.51332 6.52588 9.71721 6.61297 9.76838C6.93549 9.95781 7.39205 9.9792 7.72849 9.8206C7.83636 9.76974 8.20754 9.50324 8.6449 9.16256C9.0492 8.84766 9.42574 8.56686 9.48166 8.53858C9.55846 8.49971 9.60522 8.49343 9.67287 8.5128C9.72211 8.52693 10.1799 8.87274 10.6903 9.28129L11.6181 10.0241L11.6089 10.6178C11.6012 11.113 11.5915 11.2265 11.5501 11.3021C11.4866 11.418 11.345 11.5597 11.2291 11.6231C11.1444 11.6695 10.8354 11.6727 6.54053 11.6727C2.24562 11.6727 1.93665 11.6695 1.85198 11.6231C1.80214 11.5959 1.72068 11.5329 1.67098 11.4831C1.51041 11.3225 1.48432 11.2423 1.47487 10.8799L1.46622 10.5483L2.95058 9.30851C3.76696 8.62663 4.47089 8.04609 4.51482 8.01842C4.6058 7.96113 4.66095 7.95605 4.76464 7.99549Z" fill="#828282"/>
</svg>
