<svg width="18" height="19" viewBox="0 0 18 19" fill="none" xmlns="http://www.w3.org/2000/svg">
<path d="M12.9673 0C13.2514 0 13.5364 0 13.8206 0C14.435 0.298102 15.1048 0.52189 15.6526 0.91204C16.6109 1.59269 16.7142 2.6939 15.9172 3.54429C15.4897 4.00031 14.9316 4.33557 14.4273 4.71981C14.3172 4.80426 14.1875 4.86337 14.0663 4.93346C15.1261 5.01369 16.1484 5.00862 17.1707 5.01538C17.6963 5.01876 17.9822 5.24508 17.9873 5.72812C18.0052 7.34615 18.0027 8.96418 17.989 10.5814C17.9856 11.018 17.7381 11.2485 17.2978 11.2848C17.0623 11.3042 16.8242 11.2882 16.5469 11.2882C16.5469 11.4917 16.5469 11.6429 16.5469 11.794C16.5469 13.9044 16.5401 16.0148 16.552 18.1251C16.5546 18.5364 16.4257 18.8328 16.0383 19C11.3451 19 6.6519 19 1.95869 19C1.57214 18.8328 1.44243 18.5389 1.44414 18.1268C1.45694 16.0046 1.45011 13.8824 1.45011 11.7603C1.45011 11.6116 1.45011 11.463 1.45011 11.2933C1.26068 11.2933 1.13353 11.2941 1.00639 11.2933C0.194037 11.2865 0.00204194 11.0965 0.00118863 10.2976C0.000335314 8.83581 -0.00137131 7.37402 0.00204194 5.91222C0.00374856 5.25859 0.242676 5.01707 0.893753 5.01453C1.91602 5.01031 2.93914 5.01453 3.96141 5.012C4.07576 5.012 4.18925 4.99173 4.28908 4.98244C3.7276 4.56611 3.14223 4.20974 2.65499 3.75203C1.65064 2.80875 1.73 1.59185 2.8649 0.817459C3.38628 0.461087 4.02114 0.267701 4.60481 0C4.88896 0 5.17397 0 5.45812 0C7.54618 0.528646 8.37048 2.24632 9.20672 3.99778C10.037 2.21254 10.8715 0.518512 12.9673 0ZM2.91781 11.3135C2.91781 13.4247 2.91781 15.4836 2.91781 17.55C4.71147 17.55 6.47868 17.55 8.24504 17.55C8.24504 15.4532 8.24504 13.3834 8.24504 11.3135C6.45479 11.3135 4.69782 11.3135 2.91781 11.3135ZM15.0835 17.5602C15.0835 15.454 15.0835 13.3943 15.0835 11.3177C13.2924 11.3177 11.526 11.3177 9.75028 11.3177C9.75028 13.4121 9.75028 15.4819 9.75028 17.5602C11.538 17.5602 13.2949 17.5602 15.0835 17.5602ZM1.48425 6.42904C1.48425 7.57247 1.48425 8.71083 1.48425 9.85173C3.75235 9.85173 6.00168 9.85173 8.24418 9.85173C8.24418 8.69394 8.24418 7.56571 8.24418 6.42904C5.97949 6.42904 3.75064 6.42904 1.48425 6.42904ZM9.73834 9.84919C12.0278 9.84919 14.278 9.84919 16.529 9.84919C16.529 8.69985 16.529 7.58091 16.529 6.4434C14.2575 6.4434 12.0081 6.4434 9.73834 6.4434C9.73834 7.58598 9.73834 8.70492 9.73834 9.84919ZM10.4253 4.83804C10.5447 4.82199 10.6181 4.82706 10.6778 4.80088C11.7999 4.30686 12.9289 3.82635 14.0365 3.30024C14.3462 3.1533 14.5988 2.88053 14.8591 2.64576C15.0587 2.46589 15.0553 2.27588 14.8548 2.0656C14.0877 1.25828 12.9715 1.19663 12.1626 1.94484C11.3127 2.73021 10.8562 3.74781 10.4253 4.83804ZM7.89006 4.85577C7.5658 3.75879 7.11525 2.79186 6.33191 2.02507C5.56905 1.2777 4.76352 1.21774 3.87096 1.80381C3.26255 2.20325 3.2105 2.51571 3.83171 2.91346C4.64747 3.4362 5.52468 3.87195 6.39762 4.30095C6.87121 4.53402 7.39087 4.67421 7.89006 4.85577Z" fill="white"/>
</svg>
