<svg width="24" height="25" viewBox="0 0 24 25" fill="none" xmlns="http://www.w3.org/2000/svg">
<rect y="0.0419922" width="24" height="24" rx="12" fill="#EB5757"/>
<rect y="0.0419922" width="24" height="24" rx="12" fill="url(#paint0_linear_1_5861)"/>
<ellipse cx="11.8152" cy="12.0611" rx="7.74881" ry="7.61967" fill="white"/>
<path d="M11.4153 13.779C11.123 13.8577 10.7979 13.7578 10.684 13.4773C10.5857 13.2352 10.5365 12.9663 10.5365 12.6707C10.5365 12.3926 10.5919 12.1414 10.7027 11.9171C10.822 11.6838 10.9626 11.4954 11.1245 11.3518C11.2864 11.2083 11.4483 11.0782 11.6102 10.9615C11.772 10.8449 11.9084 10.7283 12.0191 10.6116C12.1384 10.486 12.1981 10.3649 12.1981 10.2483C12.1981 9.89834 11.9467 9.72339 11.444 9.72339C11.2989 9.72339 11.159 9.74217 11.0242 9.77974C10.4534 9.93883 9.75098 9.99972 9.37285 9.54349C9.08397 9.19495 9.07524 8.67657 9.43624 8.40342C9.64704 8.24392 9.87748 8.10969 10.1275 8.00073C10.6303 7.7854 11.15 7.67773 11.6868 7.67773C12.5219 7.67773 13.1865 7.87512 13.6807 8.2699C14.1749 8.66467 14.422 9.18506 14.422 9.83105C14.422 10.1899 14.3538 10.5085 14.2175 10.7866C14.0812 11.0647 13.915 11.2935 13.719 11.473C13.5316 11.6434 13.3399 11.8004 13.1439 11.944C12.9479 12.0876 12.7818 12.2401 12.6454 12.4016C12.5091 12.5631 12.4409 12.7335 12.4409 12.913C12.4409 13.1775 12.3221 13.5349 12.0667 13.6037L11.4153 13.779ZM12.556 16.5736C12.3174 16.8249 12.0362 16.9505 11.7124 16.9505C11.3886 16.9505 11.1074 16.8249 10.8689 16.5736C10.6303 16.3224 10.511 16.0263 10.511 15.6854C10.511 15.3444 10.6303 15.0484 10.8689 14.7971C11.1074 14.5459 11.3886 14.4203 11.7124 14.4203C12.0362 14.4203 12.3174 14.5459 12.556 14.7971C12.7945 15.0484 12.9138 15.3444 12.9138 15.6854C12.9138 16.0263 12.7945 16.3224 12.556 16.5736Z" fill="#EB5757"/>
<path d="M11.4153 13.779C11.123 13.8577 10.7979 13.7578 10.684 13.4773C10.5857 13.2352 10.5365 12.9663 10.5365 12.6707C10.5365 12.3926 10.5919 12.1414 10.7027 11.9171C10.822 11.6838 10.9626 11.4954 11.1245 11.3518C11.2864 11.2083 11.4483 11.0782 11.6102 10.9615C11.772 10.8449 11.9084 10.7283 12.0191 10.6116C12.1384 10.486 12.1981 10.3649 12.1981 10.2483C12.1981 9.89834 11.9467 9.72339 11.444 9.72339C11.2989 9.72339 11.159 9.74217 11.0242 9.77974C10.4534 9.93883 9.75098 9.99972 9.37285 9.54349C9.08397 9.19495 9.07524 8.67657 9.43624 8.40342C9.64704 8.24392 9.87748 8.10969 10.1275 8.00073C10.6303 7.7854 11.15 7.67773 11.6868 7.67773C12.5219 7.67773 13.1865 7.87512 13.6807 8.2699C14.1749 8.66467 14.422 9.18506 14.422 9.83105C14.422 10.1899 14.3538 10.5085 14.2175 10.7866C14.0812 11.0647 13.915 11.2935 13.719 11.473C13.5316 11.6434 13.3399 11.8004 13.1439 11.944C12.9479 12.0876 12.7818 12.2401 12.6454 12.4016C12.5091 12.5631 12.4409 12.7335 12.4409 12.913C12.4409 13.1775 12.3221 13.5349 12.0667 13.6037L11.4153 13.779ZM12.556 16.5736C12.3174 16.8249 12.0362 16.9505 11.7124 16.9505C11.3886 16.9505 11.1074 16.8249 10.8689 16.5736C10.6303 16.3224 10.511 16.0263 10.511 15.6854C10.511 15.3444 10.6303 15.0484 10.8689 14.7971C11.1074 14.5459 11.3886 14.4203 11.7124 14.4203C12.0362 14.4203 12.3174 14.5459 12.556 14.7971C12.7945 15.0484 12.9138 15.3444 12.9138 15.6854C12.9138 16.0263 12.7945 16.3224 12.556 16.5736Z" fill="url(#paint1_linear_1_5861)"/>
<defs>
<linearGradient id="paint0_linear_1_5861" x1="22.9655" y1="-5.68528" x2="-1.56555" y2="-4.02616" gradientUnits="userSpaceOnUse">
<stop stop-color="#89B547"/>
<stop offset="1" stop-color="#36BDB1"/>
</linearGradient>
<linearGradient id="paint1_linear_1_5861" x1="14.1829" y1="5.46493" x2="8.49653" y2="5.69499" gradientUnits="userSpaceOnUse">
<stop stop-color="#89B547"/>
<stop offset="1" stop-color="#36BDB1"/>
</linearGradient>
</defs>
</svg>
