<svg width="16" height="16" viewBox="0 0 16 16" fill="none" xmlns="http://www.w3.org/2000/svg">
<circle cx="7.84008" cy="7.97851" r="7.30077" fill="#2F80ED"/>
<path d="M7.47107 9.62177C7.19085 9.69848 6.87867 9.60157 6.77154 9.3315C6.6799 9.10045 6.63407 8.84407 6.63407 8.56236C6.63407 8.29587 6.68626 8.05516 6.79062 7.84024C6.90301 7.61673 7.03548 7.4362 7.18801 7.29865C7.34054 7.16111 7.49308 7.03646 7.64561 6.9247C7.79814 6.81294 7.92659 6.70119 8.03096 6.58943C8.14335 6.46908 8.19955 6.35302 8.19955 6.24126C8.19955 5.90599 7.96272 5.73836 7.48906 5.73836C7.35909 5.73836 7.2335 5.75463 7.11229 5.78718C6.56365 5.93451 5.88722 5.99489 5.52833 5.55453C5.26056 5.22597 5.252 4.74175 5.5868 4.48182C5.78828 4.3254 6.00892 4.19406 6.24873 4.0878C6.72238 3.88148 7.21209 3.77832 7.71786 3.77832C8.50461 3.77832 9.1308 3.96745 9.59643 4.3457C10.0621 4.72395 10.2949 5.22256 10.2949 5.84152C10.2949 6.18539 10.2306 6.49057 10.1022 6.75706C9.97375 7.02356 9.8172 7.24278 9.63255 7.41471C9.45594 7.57804 9.27531 7.72849 9.09066 7.86603C8.90602 8.00358 8.74947 8.14972 8.62102 8.30446C8.49257 8.4592 8.42835 8.62254 8.42835 8.79447C8.42835 9.04902 8.31423 9.39096 8.06871 9.45817L7.47107 9.62177ZM8.53672 12.3019C8.31194 12.5426 8.04701 12.663 7.74195 12.663C7.43688 12.663 7.17195 12.5426 6.94717 12.3019C6.72238 12.0612 6.60999 11.7775 6.60999 11.4508C6.60999 11.1242 6.72238 10.8405 6.94717 10.5998C7.17195 10.3591 7.43688 10.2387 7.74195 10.2387C8.04701 10.2387 8.31194 10.3591 8.53672 10.5998C8.76151 10.8405 8.8739 11.1242 8.8739 11.4508C8.8739 11.7775 8.76151 12.0612 8.53672 12.3019Z" fill="#EB5757"/>
<path d="M7.47107 9.62177C7.19085 9.69848 6.87867 9.60157 6.77154 9.3315C6.6799 9.10045 6.63407 8.84407 6.63407 8.56236C6.63407 8.29587 6.68626 8.05516 6.79062 7.84024C6.90301 7.61673 7.03548 7.4362 7.18801 7.29865C7.34054 7.16111 7.49308 7.03646 7.64561 6.9247C7.79814 6.81294 7.92659 6.70119 8.03096 6.58943C8.14335 6.46908 8.19955 6.35302 8.19955 6.24126C8.19955 5.90599 7.96272 5.73836 7.48906 5.73836C7.35909 5.73836 7.2335 5.75463 7.11229 5.78718C6.56365 5.93451 5.88722 5.99489 5.52833 5.55453C5.26056 5.22597 5.252 4.74175 5.5868 4.48182C5.78828 4.3254 6.00892 4.19406 6.24873 4.0878C6.72238 3.88148 7.21209 3.77832 7.71786 3.77832C8.50461 3.77832 9.1308 3.96745 9.59643 4.3457C10.0621 4.72395 10.2949 5.22256 10.2949 5.84152C10.2949 6.18539 10.2306 6.49057 10.1022 6.75706C9.97375 7.02356 9.8172 7.24278 9.63255 7.41471C9.45594 7.57804 9.27531 7.72849 9.09066 7.86603C8.90602 8.00358 8.74947 8.14972 8.62102 8.30446C8.49257 8.4592 8.42835 8.62254 8.42835 8.79447C8.42835 9.04902 8.31423 9.39096 8.06871 9.45817L7.47107 9.62177ZM8.53672 12.3019C8.31194 12.5426 8.04701 12.663 7.74195 12.663C7.43688 12.663 7.17195 12.5426 6.94717 12.3019C6.72238 12.0612 6.60999 11.7775 6.60999 11.4508C6.60999 11.1242 6.72238 10.8405 6.94717 10.5998C7.17195 10.3591 7.43688 10.2387 7.74195 10.2387C8.04701 10.2387 8.31194 10.3591 8.53672 10.5998C8.76151 10.8405 8.8739 11.1242 8.8739 11.4508C8.8739 11.7775 8.76151 12.0612 8.53672 12.3019Z" fill="url(#paint0_linear_273_735)"/>
<defs>
<linearGradient id="paint0_linear_273_735" x1="10.0696" y1="1.65812" x2="4.71173" y2="1.87128" gradientUnits="userSpaceOnUse">
<stop stop-color="white"/>
<stop offset="1" stop-color="white"/>
</linearGradient>
</defs>
</svg>
