<svg width="26" height="25" viewBox="0 0 26 25" fill="none" xmlns="http://www.w3.org/2000/svg">
<path fill-rule="evenodd" clip-rule="evenodd" d="M12.5393 24.6606C19.4645 24.6606 25.0786 19.1401 25.0786 12.3303C25.0786 5.52046 19.4645 0 12.5393 0C5.61403 0 0 5.52046 0 12.3303C0 19.1401 5.61403 24.6606 12.5393 24.6606ZM10.7984 14.5448C10.9821 14.9953 11.5047 15.1556 11.9746 15.0295L13.0301 14.7462C13.4405 14.6361 13.6314 14.0612 13.6314 13.6363C13.6314 13.3477 13.7414 13.0736 13.9612 12.8139C14.1811 12.5543 14.4491 12.309 14.7651 12.0782C15.0812 11.8474 15.3904 11.5949 15.6927 11.3208C16.0087 11.0323 16.2767 10.6644 16.4966 10.2172C16.7164 9.76996 16.8264 9.25782 16.8264 8.68076C16.8264 7.64206 16.4279 6.80532 15.6308 6.17056C14.8338 5.53579 13.762 5.21841 12.4153 5.21841C11.5496 5.21841 10.7113 5.39153 9.90055 5.73776C9.49853 5.91241 9.12797 6.12743 8.78888 6.38282C8.20507 6.82253 8.21906 7.65979 8.68629 8.22182C9.29529 8.95441 10.4237 8.85711 11.341 8.59983C11.5601 8.53837 11.7877 8.50764 12.0236 8.50764C12.8344 8.50764 13.2398 8.78896 13.2398 9.35159C13.2398 9.53914 13.1436 9.73389 12.9512 9.93586C12.7726 10.1234 12.5527 10.311 12.2916 10.4985C12.0305 10.686 11.7694 10.8952 11.5083 11.126C11.2472 11.3569 11.0205 11.6598 10.8281 12.0349C10.6495 12.3956 10.5602 12.7995 10.5602 13.2467C10.5602 13.7225 10.6396 14.1551 10.7984 14.5448ZM12.4565 20.1282C12.9787 20.1282 13.4322 19.9262 13.8169 19.5222C14.2017 19.1183 14.3941 18.6422 14.3941 18.094C14.3941 17.5458 14.2017 17.0697 13.8169 16.6658C13.4322 16.2619 12.9787 16.0599 12.4565 16.0599C11.9343 16.0599 11.4808 16.2619 11.0961 16.6658C10.7113 17.0697 10.5189 17.5458 10.5189 18.094C10.5189 18.6422 10.7113 19.1183 11.0961 19.5222C11.4808 19.9262 11.9343 20.1282 12.4565 20.1282Z" fill="white"/>
</svg>
