<svg width="16" height="15" viewBox="0 0 16 15" fill="none" xmlns="http://www.w3.org/2000/svg">
<path d="M7.21455 0.595796C7.58136 -0.14745 8.64121 -0.147452 9.00802 0.595794L10.5875 3.79616C10.7332 4.0913 11.0147 4.29587 11.3404 4.3432L14.8722 4.8564C15.6925 4.97558 16.02 5.98356 15.4265 6.56209L12.8708 9.05323C12.6351 9.28297 12.5276 9.61397 12.5832 9.93836L13.1865 13.4559C13.3266 14.2728 12.4692 14.8958 11.7356 14.5101L8.57663 12.8493C8.2853 12.6962 7.93727 12.6962 7.64595 12.8493L4.487 14.5101C3.75337 14.8958 2.89594 14.2728 3.03605 13.4559L3.63935 9.93836C3.69499 9.61397 3.58744 9.28297 3.35176 9.05323L0.796118 6.56209C0.202601 5.98356 0.53011 4.97559 1.35033 4.8564L4.88214 4.3432C5.20785 4.29587 5.48942 4.0913 5.63508 3.79616L7.21455 0.595796Z" fill="#FFCB3A"/>
</svg>
