<svg width="13" height="13" viewBox="0 0 13 13" fill="none" xmlns="http://www.w3.org/2000/svg">
<path fill-rule="evenodd" clip-rule="evenodd" d="M11.9718 9.62994C12.1958 9.90886 12.3589 10.2316 12.4505 10.5774C12.5144 10.799 12.5234 10.8467 12.5333 11.5339C12.5432 12.2211 12.5432 12.2616 12.4847 12.3769C12.4456 12.4547 12.3824 12.5179 12.3046 12.557C12.3019 12.5584 12.2992 12.5597 12.2966 12.5611C12.1896 12.6138 12.0567 12.6138 6.54053 12.6138C1.02291 12.6138 0.890524 12.6138 0.784354 12.561C0.781744 12.5597 0.77915 12.5584 0.776492 12.557C0.698536 12.5181 0.635329 12.4549 0.596366 12.3769C0.540527 12.2706 0.540527 12.2031 0.540527 11.624C0.540527 10.7918 0.58736 10.5153 0.806213 10.0713C1.00469 9.67519 1.30379 9.33821 1.67352 9.09411C1.9165 8.93212 1.96136 8.91581 2.86664 8.58665C2.968 8.54979 3.08016 8.50901 3.20459 8.46366C3.37669 8.40062 3.53537 8.3426 3.67523 8.29147C3.905 8.20747 4.08395 8.14204 4.18808 8.10341C4.17817 8.0908 4.16556 8.07729 4.15115 8.06198C3.85824 7.72236 3.63239 7.33026 3.48559 6.90647C3.46307 6.83352 3.42254 6.68402 3.39553 6.56333C3.34689 6.35079 3.34419 6.26613 3.33518 4.82512L3.32708 3.38411L3.23702 3.35709L2.31027 3.0869C2.17877 3.04997 1.51861 2.85994 1.45287 2.81041C1.39539 2.77078 1.34806 2.71817 1.31473 2.65682C1.2814 2.59548 1.263 2.52715 1.26103 2.45736C1.26335 2.38752 1.2819 2.31919 1.31519 2.25775C1.34849 2.19632 1.39562 2.14348 1.45287 2.10341C1.51681 2.05478 3.40543 1.50269 3.98274 1.33427C4.23401 1.25952 6.44056 0.61377 6.51531 0.61377C6.6396 0.61377 11.5579 2.04307 11.6381 2.10161C11.6835 2.13798 11.7243 2.17971 11.7597 2.2259C11.7645 2.23226 11.7689 2.23816 11.773 2.24428C11.8255 2.32213 11.8259 2.435 11.8317 3.98483L11.838 5.57264L11.9389 5.62578C12.0806 5.70386 12.204 5.81124 12.3009 5.94076C12.3978 6.07028 12.466 6.21896 12.5009 6.3769C12.5228 6.56551 12.5321 6.75536 12.5288 6.9452C12.5288 7.44415 12.5072 7.57204 12.2956 7.68012C12.1884 7.73686 12.1307 7.73686 11.4012 7.73686C10.6717 7.73686 10.6141 7.73505 10.506 7.68012C10.2944 7.57564 10.2727 7.44415 10.2727 6.9452C10.2699 6.75537 10.2792 6.56555 10.3007 6.3769C10.3355 6.2188 10.4037 6.06997 10.5008 5.94041C10.5979 5.81086 10.7216 5.70358 10.8636 5.62578L10.9644 5.57264V4.27033C10.9644 3.57144 10.9644 3.18687 10.9563 3.03647L10.3358 3.21659L9.73777 3.39672V4.38741C9.73777 4.97642 9.72696 5.57624 9.71345 5.72485C9.62789 6.67141 9.34239 7.43244 8.84074 8.05388L8.80111 8.10431C8.97583 8.16465 9.3523 8.29705 9.82783 8.46456C10.4637 8.68792 11.0455 8.90587 11.15 8.95811C11.4679 9.12216 11.7478 9.35103 11.9718 9.62994ZM11.4026 6.36141C11.3593 6.36141 11.3169 6.37298 11.2796 6.39492H11.276C11.1887 6.44085 11.1446 6.5084 11.1482 6.75517V6.87315H11.6606V6.75517C11.6606 6.5075 11.6156 6.44175 11.5255 6.39492C11.4883 6.37298 11.4458 6.36141 11.4026 6.36141ZM6.10102 11.7375V10.9539L4.17367 9.03376L3.32798 9.34088C2.7876 9.53271 2.34269 9.70834 2.26614 9.75067C2.13118 9.82389 2.00941 9.91917 1.90588 10.0326C1.7791 10.145 1.67725 10.2828 1.60687 10.4369C1.45197 10.754 1.43485 10.8404 1.42044 11.3628L1.41054 11.7375H6.10102ZM10.0251 9.45256L9.16947 9.15265L8.87136 9.05178L6.97373 10.9476V11.7312H11.6642L11.6543 11.3565C11.6399 10.8431 11.6228 10.7513 11.4832 10.4649C11.3251 10.1385 11.0596 9.87647 10.7312 9.72275C10.6213 9.67321 10.2953 9.54802 10.0251 9.45256ZM5.80201 4.70353C6.29154 4.74091 6.78321 4.74091 7.27274 4.70353L7.26914 4.70623C7.75481 4.63635 8.23059 4.5097 8.68673 4.32887L8.86686 4.25772V3.91818V3.63358L7.7861 3.9389C7.42855 4.04067 6.59096 4.27663 6.53692 4.27663C6.48289 4.27663 5.68223 4.04967 5.33999 3.95241L4.20429 3.62908V4.25952L4.38442 4.33067C4.84077 4.50989 5.31654 4.63503 5.80201 4.70353ZM8.86956 5.19708L8.83984 5.20879L8.83624 5.21149C7.49096 5.69852 6.02579 5.74583 4.65191 5.34658C4.62629 5.33831 4.59945 5.32967 4.57213 5.32089C4.44477 5.27991 4.30716 5.23564 4.23671 5.20969L4.20699 5.19798V5.57534C4.20699 6.10131 4.2223 6.29315 4.29706 6.55163C4.642 7.74766 5.88487 8.47898 7.0683 8.18267C7.94191 7.96472 8.56424 7.2244 8.7795 6.14364C8.8363 5.85734 8.86645 5.5664 8.86956 5.27453V5.19708ZM7.84284 8.82842C7.43687 9.031 6.98678 9.12913 6.53332 9.11392C6.09369 9.12603 5.65704 9.03827 5.25623 8.85724C5.39132 8.99774 5.57955 9.18867 5.80291 9.41203L6.53332 10.1433L7.25923 9.41743C7.51411 9.16255 7.71675 8.95991 7.84284 8.82842ZM4.7879 2.89417L6.53332 3.39131L8.28235 2.89597C8.94971 2.70684 9.4946 2.55013 9.79901 2.46006C9.5054 2.37 8.98034 2.21329 8.31387 2.02146C7.34569 1.74136 6.62609 1.54052 6.52071 1.5162C6.34779 1.55403 4.0719 2.21959 3.27844 2.46186L4.7879 2.89417ZM6.53443 7.72864C6.39551 7.73213 6.25661 7.72066 6.12014 7.69442C5.74818 7.60075 5.24653 7.30534 5.15647 7.06488C5.13346 7.00448 5.12373 6.93984 5.12792 6.87535C5.13212 6.81085 5.15015 6.74802 5.18078 6.69111C5.20985 6.63752 5.25018 6.59085 5.299 6.55431C5.34781 6.51778 5.40396 6.49224 5.46358 6.47947C5.57036 6.46 5.68058 6.47647 5.777 6.5263C5.80402 6.54251 5.88598 6.60736 5.93461 6.64608C6.10392 6.78552 6.31644 6.86177 6.53578 6.86177C6.75512 6.86177 6.96764 6.78552 7.13695 6.64608C7.30267 6.51099 7.36842 6.47406 7.51702 6.47406C7.5857 6.47313 7.65355 6.48906 7.71464 6.52047C7.77572 6.55187 7.82816 6.59779 7.86736 6.65419C7.9071 6.7139 7.932 6.78224 7.93999 6.85352C7.94798 6.92479 7.93883 6.99695 7.9133 7.06398C7.82233 7.30534 7.32068 7.60435 6.94872 7.69442C6.81226 7.72074 6.67336 7.73222 6.53443 7.72864Z" fill="#828282"/>
</svg>
