<svg width="13" height="13" viewBox="0 0 13 13" fill="none" xmlns="http://www.w3.org/2000/svg">
<path fill-rule="evenodd" clip-rule="evenodd" d="M12.2114 0.622531C12.4058 0.719506 12.5636 0.87694 12.661 1.0712C12.7284 1.20783 12.7284 1.21457 12.7282 3.0852L12.7282 3.39194C12.7282 5.56895 12.7282 5.56895 12.661 5.71544C12.563 5.90931 12.4054 6.06659 12.2114 6.16411C12.0649 6.23136 11.9995 6.23228 11.1979 6.23873L10.4462 6.24518L10.039 6.64963C9.57831 7.10843 9.45301 7.23188 9.20979 7.17108L9.20967 7.17105C9.15902 7.15816 9.09608 7.14213 8.59805 6.64871L8.189 6.24334H6.796C6.77481 6.37785 6.64952 6.7998 6.55186 7.09645C6.78034 7.1029 7.14425 7.10751 7.32851 7.10751L7.33592 7.10757C8.37796 7.1158 8.39854 7.11596 8.57226 7.1849C8.83557 7.30084 9.04524 7.51215 9.15912 7.77637C9.24212 8.00746 9.24826 8.25919 9.17662 8.49405C9.38113 8.60985 9.54539 8.78536 9.6474 8.99708C9.71174 9.12922 9.73943 9.27622 9.72756 9.42272C9.73898 9.5685 9.71164 9.7147 9.64832 9.84651C9.55632 10.0445 9.40711 10.2104 9.21992 10.3228C9.30085 10.5643 9.29728 10.8262 9.20979 11.0654C9.11314 11.2909 8.94603 11.479 8.73348 11.6016C8.80729 11.8205 8.80764 12.0575 8.73448 12.2767C8.66132 12.4959 8.51864 12.6851 8.32811 12.8158L8.32802 12.8159C8.06186 12.9909 8.04785 13.0001 6.43025 13.0001H6.08937H6.08845C4.05053 12.9992 3.9703 12.9991 3.3255 12.7587L3.24811 12.7302V12.7357C3.17387 12.8109 3.08762 12.8731 2.99291 12.9199C2.85011 12.9881 2.81326 12.9881 1.88736 12.9881C0.980806 12.9881 0.92645 12.9881 0.781807 12.9209C0.595287 12.8305 0.444682 12.6799 0.354327 12.4934C0.287073 12.3441 0.287073 12.3441 0.280624 10.098C0.274175 8.01775 0.279702 7.84546 0.317475 7.7174C0.356736 7.60183 0.418797 7.4953 0.49998 7.40415C0.581164 7.313 0.679819 7.23907 0.790098 7.18674C0.951325 7.11396 0.951324 7.11396 1.88828 7.11396H1.8883C2.80865 7.11396 2.82616 7.11396 2.9837 7.18582C3.05853 7.21935 3.12855 7.26273 3.19191 7.3148C3.41737 7.19664 3.63494 7.064 3.84326 6.91772C4.00316 6.78376 4.13605 6.62054 4.23481 6.43681C4.256 6.39166 4.39051 6.04618 4.5545 5.59567C4.68532 5.23176 4.83826 4.81441 4.86405 4.75637C4.86958 4.74347 4.87603 4.73057 4.88248 4.7186C4.71665 4.75637 4.57385 4.70754 4.3555 4.59238L4.21546 4.51868L4.07082 4.59514C3.86445 4.70386 3.7843 4.74071 3.62399 4.72505C3.537 4.71834 3.45284 4.69113 3.37838 4.64566C3.30392 4.60018 3.24129 4.53773 3.19559 4.4634C3.08964 4.3077 3.09609 4.15108 3.15045 3.85995L3.1698 3.75953L3.05371 3.64713C2.83905 3.438 2.72573 3.26664 2.78378 3.01144C2.85656 2.68807 3.09425 2.5941 3.4554 2.54527L3.56779 2.53421L3.62676 2.41352C3.72718 2.20992 3.81654 2.07449 3.97316 1.98789C4.05062 1.95413 4.1342 1.93671 4.21869 1.93671C4.30318 1.93671 4.38676 1.95413 4.46421 1.98789C4.61807 2.06712 4.70928 2.20992 4.81615 2.43011L4.86405 2.52961L4.98014 2.54527C5.26205 2.58304 5.45921 2.64753 5.57529 2.83179C5.61983 2.90921 5.6468 2.99547 5.65428 3.08447C5.66177 3.17347 5.64958 3.26303 5.61859 3.34679C5.55168 3.46024 5.4678 3.56277 5.36984 3.65082L5.26666 3.7494L5.29061 3.8922C5.31424 4.02004 5.32197 4.15032 5.31364 4.28006C5.29717 4.35238 5.26579 4.42047 5.22151 4.47998H5.24823C5.37261 4.47998 5.84247 4.64674 5.97605 4.71123C6.26792 4.86391 6.50423 5.10472 6.65136 5.39943H7.48697C8.47552 5.39943 8.51329 5.41786 8.56765 5.4455C8.74405 5.58221 8.9089 5.73319 9.06054 5.89693L9.32679 6.16042L9.60318 5.88403C10.0297 5.4584 10.0325 5.45655 10.0638 5.44089C10.1136 5.41602 10.1136 5.41602 11.0468 5.4022L11.8631 5.39022L11.8871 5.36627V1.41392L11.864 1.39089H2.42631L2.40328 1.41392V5.36627L2.41526 5.37732L2.42355 5.38653C2.45948 5.39298 2.57372 5.40128 2.66585 5.40128L3.05371 5.42154L3.17532 5.55697C3.21351 5.59346 3.24351 5.63763 3.26335 5.68658C3.28319 5.73552 3.29241 5.78812 3.29041 5.8409C3.28841 5.89367 3.27522 5.94542 3.25173 5.99272C3.22824 6.04002 3.19497 6.08179 3.15413 6.11528L3.01594 6.25347L2.59952 6.24334C2.30931 6.23597 2.20612 6.22491 2.08083 6.16779C1.88617 6.07109 1.72834 5.91358 1.63124 5.71912C1.56398 5.57264 1.56398 5.57264 1.55661 3.46657V3.46656C1.54924 1.54014 1.56306 1.31442 1.57965 1.2398C1.61333 1.09171 1.68435 0.954708 1.78594 0.841824C1.88754 0.728941 2.01633 0.643934 2.16006 0.594893C2.29918 0.548828 2.30747 0.548828 7.18203 0.548828L12.0649 0.554356L12.2114 0.622531ZM7.50816 8.37705C7.75403 8.38261 8.00001 8.37585 8.2452 8.35678C8.29485 8.33988 8.33651 8.30523 8.36219 8.25949C8.38786 8.21375 8.39574 8.16015 8.38431 8.10895C8.37294 8.07529 8.35411 8.04463 8.32922 8.01926C8.30433 7.99389 8.27403 7.97448 8.24059 7.96247C8.21295 7.95786 8.02409 7.94312 7.03185 7.94312H5.79456L5.67111 7.81967C5.63409 7.78559 5.60421 7.74451 5.58317 7.69881C5.56214 7.65311 5.55038 7.60369 5.54857 7.55341C5.54857 7.4705 5.66466 7.11304 5.76231 6.82559C5.95763 6.25531 5.95763 6.24242 5.95763 6.07105C5.96866 5.9797 5.95365 5.88708 5.91433 5.80388C5.85999 5.68467 5.77394 5.58269 5.66558 5.50907C5.61764 5.47909 5.56743 5.45291 5.51541 5.43076L5.3376 5.92088C5.04831 6.71688 5.01146 6.7998 4.86405 7.02644C4.61438 7.40877 4.33707 7.64831 3.76495 7.96155L3.51712 8.09698L3.5116 10.0188L3.51132 10.1312C3.50872 11.1724 3.50734 11.7273 3.51712 11.9213L3.72718 11.9959C4.16387 12.1543 4.16848 12.1543 6.09859 12.1543H7.77718L7.83983 12.1212C7.86632 12.1072 7.88944 12.0875 7.90758 12.0637C7.92571 12.0398 7.93844 12.0123 7.94486 11.983C7.95082 11.956 7.95086 11.928 7.94497 11.9009C7.93909 11.8739 7.92742 11.8485 7.91077 11.8264C7.85641 11.7545 7.85641 11.7545 7.34602 11.7435L6.72691 11.7296L6.60437 11.5933C6.56685 11.5559 6.5372 11.5115 6.5172 11.4624C6.4972 11.4134 6.48725 11.3609 6.48793 11.308C6.48862 11.255 6.49993 11.2028 6.5212 11.1543C6.54247 11.1058 6.57326 11.0621 6.61175 11.0258L6.73428 10.9014H7.51553C7.93104 10.9014 8.22954 10.8903 8.27744 10.883C8.30972 10.877 8.33981 10.8624 8.3646 10.8409C8.38938 10.8193 8.40795 10.7916 8.4184 10.7604C8.44788 10.7015 8.44788 10.695 8.44143 10.6563C8.43209 10.62 8.4152 10.5861 8.39186 10.5567C8.36853 10.5273 8.33928 10.5032 8.306 10.4859C8.26731 10.4794 8.00474 10.4684 7.56344 10.4684C6.78863 10.4684 6.65136 10.4684 6.53528 10.2583C6.50684 10.2045 6.49047 10.1452 6.48728 10.0844C6.4841 10.0236 6.49419 9.96288 6.51685 9.9064C6.53755 9.85145 6.56993 9.80165 6.61177 9.76045C6.65361 9.71925 6.70389 9.68763 6.75915 9.66778C6.79969 9.65304 6.86142 9.63185 7.83522 9.63185C8.58607 9.63185 8.73717 9.63001 8.786 9.60513C8.86062 9.56367 8.88642 9.53051 8.88642 9.42087C8.88642 9.37013 8.88642 9.35115 8.87964 9.33501C8.87559 9.32536 8.86912 9.31674 8.85878 9.30295C8.84231 9.2824 8.82446 9.26301 8.80534 9.24491C8.66438 9.2274 8.08489 9.21819 7.82877 9.21819C6.65781 9.20437 6.63478 9.20345 6.53067 8.97497C6.49201 8.89753 6.47902 8.80979 6.4936 8.72447C6.50818 8.63916 6.54956 8.56071 6.61175 8.5005L6.7352 8.37705H7.50816ZM4.21638 3.08699C4.13901 3.19699 4.02716 3.27804 3.89854 3.31731C3.98407 3.42142 4.02688 3.55413 4.01831 3.68859C4.14579 3.64486 4.28421 3.64486 4.4117 3.68859C4.40588 3.59643 4.42099 3.50414 4.45592 3.41865C4.47609 3.38285 4.49986 3.3492 4.52686 3.31823C4.39936 3.28014 4.2894 3.19824 4.21638 3.08699ZM1.46817 10.8286L1.45527 7.94404L1.37512 7.94496C1.29451 7.94355 1.21389 7.94724 1.13374 7.95602C1.11624 8.10435 1.11624 8.69213 1.11624 10.0556V10.0556V12.1267L1.14664 12.1571H2.629L2.6594 12.1267V7.968L2.64742 7.95326C2.60873 7.94404 2.52121 7.94404 2.42908 7.94404H2.32129L2.30931 10.8286L2.18862 10.9539C2.15185 10.9971 2.10562 11.0311 2.05353 11.0535C2.00144 11.0759 1.94489 11.0859 1.88828 11.0829C1.83182 11.0858 1.77545 11.0757 1.72353 11.0533C1.67161 11.0309 1.62553 10.9969 1.58886 10.9539L1.46817 10.8286ZM8.59431 2.8569C8.48744 2.64408 8.27738 2.59341 8.03324 2.55379L7.86833 2.52707L7.78633 2.37138C7.68407 2.17698 7.62234 2.07748 7.49705 2.00286C7.4116 1.95458 7.31512 1.92921 7.21697 1.92921C7.11883 1.92921 7.02235 1.95458 6.9369 2.00286C6.81806 2.07472 6.71579 2.21476 6.59326 2.47272L6.56839 2.52523L6.41545 2.54826C6.11695 2.59433 5.99626 2.64039 5.86267 2.83479C5.81449 2.91274 5.78575 3.00114 5.77885 3.09252C5.77196 3.18391 5.78712 3.27562 5.82306 3.35992C5.89235 3.45988 5.97169 3.55249 6.05983 3.63631L6.17131 3.74963L6.14643 3.89704C6.12279 4.02426 6.11443 4.15385 6.12156 4.28306C6.1425 4.36991 6.18291 4.45087 6.23973 4.51982C6.29655 4.58876 6.36829 4.6439 6.44954 4.68106C6.51524 4.70983 6.58603 4.72518 6.65775 4.7262C6.80598 4.71449 6.94917 4.66707 7.0751 4.58801L7.21605 4.5143L7.37267 4.59261C7.58641 4.69948 7.67394 4.73633 7.81766 4.71975C7.91119 4.70944 8.00076 4.67632 8.0785 4.62331C8.15625 4.57031 8.2198 4.49902 8.26356 4.41572C8.33911 4.25818 8.32529 4.07485 8.28199 3.84821L8.26633 3.76529L8.38886 3.65105C8.6459 3.37927 8.75461 3.17382 8.59431 2.8569ZM7.33214 3.20883C7.39214 3.25534 7.46023 3.29032 7.53298 3.31201C7.4495 3.41884 7.40819 3.55261 7.4169 3.6879C7.28807 3.64275 7.14772 3.64275 7.0189 3.6879C7.02238 3.62439 7.01836 3.56069 7.00692 3.49812C6.98424 3.43064 6.94891 3.3681 6.90281 3.31386C7.03609 3.27955 7.15116 3.19548 7.22435 3.07893C7.25462 3.12662 7.29084 3.17028 7.33214 3.20883ZM1.88805 11.9326C1.94238 11.9352 1.99667 11.9265 2.04742 11.9069C2.09818 11.8873 2.14428 11.8574 2.18279 11.8189C2.2213 11.7805 2.25136 11.7345 2.27104 11.6838C2.29073 11.6331 2.2996 11.5788 2.2971 11.5245C2.29834 11.4642 2.28636 11.4045 2.26201 11.3494C2.23766 11.2943 2.20152 11.2453 2.15614 11.2057C2.10855 11.1661 2.05291 11.1374 1.99309 11.1215C1.93327 11.1056 1.87071 11.1029 1.80974 11.1136C1.71542 11.1331 1.63086 11.1849 1.57065 11.2601C1.51044 11.3352 1.47835 11.4291 1.47992 11.5254C1.47756 11.5796 1.48651 11.6336 1.50619 11.6842C1.52588 11.7347 1.55588 11.7806 1.59427 11.8189C1.63266 11.8572 1.67861 11.8871 1.72919 11.9067C1.77977 11.9262 1.83387 11.9351 1.88805 11.9326ZM11.6686 3.08444C11.6152 2.71592 11.3922 2.60721 11.0348 2.55285L10.8781 2.52982L10.8026 2.38241C10.6497 2.08575 10.54 1.95862 10.2498 1.93835C10.1344 1.92043 10.0166 1.94783 9.92093 2.01481C9.81866 2.08299 9.74404 2.20368 9.65467 2.37504L9.57544 2.52797L9.41422 2.55285C9.11295 2.59984 8.99134 2.64498 8.86144 2.83937C8.81582 2.91203 8.78775 2.99431 8.77943 3.0797C8.77112 3.16509 8.78279 3.25125 8.81353 3.33134C8.87963 3.44704 8.96253 3.55229 9.05952 3.64366L9.17284 3.7579L9.09453 4.24526L9.17652 4.4111C9.22501 4.51419 9.30417 4.59978 9.40316 4.65616C9.48057 4.70294 9.56886 4.72867 9.65928 4.73079C9.80555 4.71905 9.94712 4.67364 10.0729 4.59812L10.2222 4.52349L10.376 4.59904C10.6626 4.73908 10.8275 4.7833 11.0467 4.65524C11.3775 4.47098 11.3425 4.12826 11.2835 3.82608L11.2715 3.76527L11.3637 3.67314C11.57 3.47322 11.6981 3.29725 11.6686 3.08444ZM10.3364 3.20881C10.3982 3.25631 10.4682 3.29221 10.5428 3.31476C10.4583 3.41841 10.4153 3.54973 10.4221 3.68328C10.2983 3.6386 10.1627 3.6386 10.0389 3.68328C10.0443 3.5485 9.99822 3.4167 9.90987 3.31476C9.98813 3.29264 10.0616 3.25608 10.1264 3.20697C10.1665 3.17046 10.2018 3.12897 10.2314 3.08351C10.261 3.12957 10.2962 3.17167 10.3364 3.20881ZM4.02721 6.2058C3.97807 6.22585 3.92551 6.23618 3.87243 6.2362C3.79186 6.23359 3.7139 6.20696 3.64856 6.15973C3.59273 6.12409 3.54665 6.07511 3.51448 6.01721C3.48231 5.9593 3.46506 5.8943 3.4643 5.82807C3.45967 5.75298 3.47697 5.67816 3.5141 5.61273C3.55123 5.5473 3.60659 5.49408 3.67344 5.45955C3.732 5.42294 3.79968 5.40353 3.86875 5.40353C3.93782 5.40353 4.00549 5.42294 4.06406 5.45955C4.13308 5.49209 4.19071 5.54464 4.22948 5.61035C4.26826 5.67607 4.28638 5.75192 4.28149 5.82807C4.2835 5.90962 4.26011 5.98979 4.21456 6.05746C4.169 6.12513 4.10353 6.17697 4.02721 6.2058Z" fill="#828282"/>
</svg>
