<svg width="25" height="25" viewBox="0 0 25 25" fill="none" xmlns="http://www.w3.org/2000/svg">
<path d="M11.5257 1.46918C11.9881 0.771917 13.0119 0.771917 13.4743 1.46918C13.8486 2.03369 14.6229 2.16289 15.1602 1.75052C15.824 1.24117 16.7923 1.57359 17.0032 2.3832C17.1739 3.03868 17.8643 3.41228 18.5064 3.19673C19.2996 2.93049 20.1075 3.5593 20.0441 4.39354C19.9928 5.06895 20.5244 5.64646 21.2018 5.65109C22.0384 5.65681 22.5983 6.51388 22.2675 7.28233C21.9997 7.90449 22.315 8.62333 22.9541 8.84764C23.7435 9.1247 23.9949 10.1171 23.4324 10.7365C22.9771 11.238 23.0419 12.0203 23.5736 12.44C24.2303 12.9584 24.1458 13.9786 23.4127 14.3819C22.8192 14.7083 22.6265 15.4692 22.9931 16.0388C23.4459 16.7423 23.0346 17.6799 22.2104 17.8232C21.543 17.9393 21.1137 18.5964 21.2755 19.2542C21.4753 20.0666 20.7819 20.8198 19.9558 20.6878C19.2869 20.5808 18.6675 21.063 18.6069 21.7376C18.5321 22.5709 17.6318 23.0582 16.8933 22.665C16.2953 22.3467 15.5529 22.6016 15.2766 23.22C14.9353 23.9839 13.9255 24.1524 13.3546 23.5407C12.8925 23.0455 12.1075 23.0455 11.6454 23.5407C11.0745 24.1524 10.0647 23.9839 9.72341 23.22C9.44708 22.6016 8.70466 22.3467 8.10675 22.665C7.36824 23.0582 6.46786 22.5709 6.39307 21.7376C6.33252 21.063 5.71308 20.5808 5.04421 20.6878C4.21806 20.8198 3.52468 20.0666 3.72451 19.2542C3.8863 18.5964 3.45697 17.9393 2.78963 17.8232C1.96536 17.6799 1.55411 16.7423 2.00691 16.0388C2.3735 15.4692 2.18081 14.7083 1.58731 14.3819C0.854246 13.9786 0.769704 12.9584 1.4264 12.44C1.95807 12.0203 2.02289 11.238 1.56755 10.7365C1.00513 10.1171 1.25645 9.1247 2.04589 8.84764C2.68502 8.62333 3.00034 7.90449 2.73249 7.28233C2.40167 6.51388 2.96162 5.65681 3.79824 5.65109C4.47558 5.64646 5.00722 5.06895 4.9559 4.39354C4.89251 3.5593 5.70041 2.93049 6.49356 3.19673C7.13571 3.41228 7.82605 3.03868 7.99682 2.3832C8.20775 1.57359 9.17605 1.24117 9.83977 1.75052C10.3771 2.16289 11.1514 2.03369 11.5257 1.46918Z" fill="#2F80ED"/>
<path d="M11.5257 1.46918C11.9881 0.771917 13.0119 0.771917 13.4743 1.46918C13.8486 2.03369 14.6229 2.16289 15.1602 1.75052C15.824 1.24117 16.7923 1.57359 17.0032 2.3832C17.1739 3.03868 17.8643 3.41228 18.5064 3.19673C19.2996 2.93049 20.1075 3.5593 20.0441 4.39354C19.9928 5.06895 20.5244 5.64646 21.2018 5.65109C22.0384 5.65681 22.5983 6.51388 22.2675 7.28233C21.9997 7.90449 22.315 8.62333 22.9541 8.84764C23.7435 9.1247 23.9949 10.1171 23.4324 10.7365C22.9771 11.238 23.0419 12.0203 23.5736 12.44C24.2303 12.9584 24.1458 13.9786 23.4127 14.3819C22.8192 14.7083 22.6265 15.4692 22.9931 16.0388C23.4459 16.7423 23.0346 17.6799 22.2104 17.8232C21.543 17.9393 21.1137 18.5964 21.2755 19.2542C21.4753 20.0666 20.7819 20.8198 19.9558 20.6878C19.2869 20.5808 18.6675 21.063 18.6069 21.7376C18.5321 22.5709 17.6318 23.0582 16.8933 22.665C16.2953 22.3467 15.5529 22.6016 15.2766 23.22C14.9353 23.9839 13.9255 24.1524 13.3546 23.5407C12.8925 23.0455 12.1075 23.0455 11.6454 23.5407C11.0745 24.1524 10.0647 23.9839 9.72341 23.22C9.44708 22.6016 8.70466 22.3467 8.10675 22.665C7.36824 23.0582 6.46786 22.5709 6.39307 21.7376C6.33252 21.063 5.71308 20.5808 5.04421 20.6878C4.21806 20.8198 3.52468 20.0666 3.72451 19.2542C3.8863 18.5964 3.45697 17.9393 2.78963 17.8232C1.96536 17.6799 1.55411 16.7423 2.00691 16.0388C2.3735 15.4692 2.18081 14.7083 1.58731 14.3819C0.854246 13.9786 0.769704 12.9584 1.4264 12.44C1.95807 12.0203 2.02289 11.238 1.56755 10.7365C1.00513 10.1171 1.25645 9.1247 2.04589 8.84764C2.68502 8.62333 3.00034 7.90449 2.73249 7.28233C2.40167 6.51388 2.96162 5.65681 3.79824 5.65109C4.47558 5.64646 5.00722 5.06895 4.9559 4.39354C4.89251 3.5593 5.70041 2.93049 6.49356 3.19673C7.13571 3.41228 7.82605 3.03868 7.99682 2.3832C8.20775 1.57359 9.17605 1.24117 9.83977 1.75052C10.3771 2.16289 11.1514 2.03369 11.5257 1.46918Z" fill="url(#paint0_radial_273_237)" fill-opacity="0.5"/>
<path fill-rule="evenodd" clip-rule="evenodd" d="M6.39479 12.2898C5.9087 12.7759 5.9087 13.564 6.39479 14.0501L10.1663 17.8216C10.1676 17.8229 10.169 17.8242 10.1703 17.8255C10.1717 17.827 10.1732 17.8285 10.1747 17.8299C10.6561 18.3114 11.4367 18.3114 11.9181 17.8299L11.9188 17.8292C11.9214 17.8267 11.924 17.8241 11.9266 17.8216C11.9291 17.819 11.9317 17.8164 11.9342 17.8138L19.0894 10.6587C19.5708 10.1772 19.5708 9.39666 19.0894 8.91522C18.608 8.43379 17.8274 8.43379 17.346 8.91522L11.0632 15.198L8.15506 12.2898C7.66897 11.8037 6.88087 11.8037 6.39479 12.2898Z" fill="white"/>
<defs>
<radialGradient id="paint0_radial_273_237" cx="0" cy="0" r="1" gradientUnits="userSpaceOnUse" gradientTransform="translate(19.2829 5.28101) rotate(134.295) scale(25.0453)">
<stop stop-color="#85E2FF"/>
<stop offset="0.434514" stop-color="#4FE6FF" stop-opacity="0.71"/>
<stop offset="1" stop-color="#45E4D6" stop-opacity="0.69"/>
<stop offset="1" stop-color="#45E4D6" stop-opacity="0"/>
</radialGradient>
</defs>
</svg>
