<svg width="50" height="49" viewBox="0 0 50 49" fill="none" xmlns="http://www.w3.org/2000/svg">
<mask id="path-1-outside-1_382_144" maskUnits="userSpaceOnUse" x="0.722656" y="0.713867" width="49" height="49" fill="black">
<rect fill="white" x="0.722656" y="0.713867" width="49" height="49"/>
<path fill-rule="evenodd" clip-rule="evenodd" d="M24.9781 47.9971C37.8218 47.9971 48.2336 37.6362 48.2336 24.8555C48.2336 12.0747 37.8218 1.71387 24.9781 1.71387C12.1345 1.71387 1.72266 12.0747 1.72266 24.8555C1.72266 37.6362 12.1345 47.9971 24.9781 47.9971ZM24.9814 44.0503C35.6346 44.0503 44.2708 35.4564 44.2708 24.8553C44.2708 14.2542 35.6346 5.66036 24.9814 5.66036C14.3281 5.66036 5.69193 14.2542 5.69193 24.8553C5.69193 35.4564 14.3281 44.0503 24.9814 44.0503Z"/>
</mask>
<path fill-rule="evenodd" clip-rule="evenodd" d="M24.9781 47.9971C37.8218 47.9971 48.2336 37.6362 48.2336 24.8555C48.2336 12.0747 37.8218 1.71387 24.9781 1.71387C12.1345 1.71387 1.72266 12.0747 1.72266 24.8555C1.72266 37.6362 12.1345 47.9971 24.9781 47.9971ZM24.9814 44.0503C35.6346 44.0503 44.2708 35.4564 44.2708 24.8553C44.2708 14.2542 35.6346 5.66036 24.9814 5.66036C14.3281 5.66036 5.69193 14.2542 5.69193 24.8553C5.69193 35.4564 14.3281 44.0503 24.9814 44.0503Z" fill="white"/>
<path d="M47.2336 24.8555C47.2336 37.0793 37.2741 46.9971 24.9781 46.9971V48.9971C38.3694 48.9971 49.2336 38.1931 49.2336 24.8555H47.2336ZM24.9781 2.71387C37.2741 2.71387 47.2336 12.6316 47.2336 24.8555H49.2336C49.2336 11.5178 38.3694 0.713867 24.9781 0.713867V2.71387ZM2.72266 24.8555C2.72266 12.6316 12.6821 2.71387 24.9781 2.71387V0.713867C11.5868 0.713867 0.722656 11.5178 0.722656 24.8555H2.72266ZM24.9781 46.9971C12.6821 46.9971 2.72266 37.0793 2.72266 24.8555H0.722656C0.722656 38.1931 11.5868 48.9971 24.9781 48.9971V46.9971ZM43.2708 24.8553C43.2708 34.8995 35.087 43.0503 24.9814 43.0503V45.0503C36.1823 45.0503 45.2708 36.0133 45.2708 24.8553H43.2708ZM24.9814 6.66036C35.087 6.66036 43.2708 14.8111 43.2708 24.8553H45.2708C45.2708 13.6973 36.1823 4.66036 24.9814 4.66036V6.66036ZM6.69193 24.8553C6.69193 14.8111 14.8758 6.66036 24.9814 6.66036V4.66036C13.7805 4.66036 4.69193 13.6973 4.69193 24.8553H6.69193ZM24.9814 43.0503C14.8758 43.0503 6.69193 34.8995 6.69193 24.8553H4.69193C4.69193 36.0133 13.7805 45.0503 24.9814 45.0503V43.0503Z" fill="white" fill-opacity="0.2" mask="url(#path-1-outside-1_382_144)"/>
<path d="M19.2214 10.4957L38.503 25.0352L19.2214 39.5739L19.2214 25.0348L19.2214 10.4957Z" fill="white"/>
<path d="M19.5241 10.0981L18.7202 9.4919L18.7202 10.4957L18.7202 25.0348L18.7202 39.5739L18.7202 40.5776L19.5241 39.9715L38.8057 25.4328L39.3329 25.0352L38.8057 24.6377L19.5241 10.0981Z" stroke="white" stroke-opacity="0.2"/>
</svg>
